<?xml version="1.0" encoding="UTF-8"?>
<svg width="62px" height="41px" viewBox="0 0 62 41" version="1.1" xmlns="http://www.w3.org/2000/svg" xmlns:xlink="http://www.w3.org/1999/xlink">
    <!-- Generator: Sketch 61.2 (89653) - https://sketch.com -->
    <title>Group 3</title>
    <desc>Created with Sketch.</desc>
    <defs>
        <path d="M27.9503563,5.2357 L40.5991017,26.86935 L52.8521158,26.86935 L37.0417075,0 L27.9503563,5.2357 Z M17.3807707,14.6575 L24.5102158,26.90215 L24.5102158,29.4585 L27.1505184,29.4585 L27.1505184,26.90215 L36.7946371,26.90215 L26.6228766,9.553 L17.3807707,14.6575 Z M6.70649421,23.85995 L8.42970518,26.86935 L20.7350647,26.86935 L15.8376279,18.7083 L6.70649421,23.85995 Z M36.8072,26.9698 L36.8072,31.3158 C36.0157374,30.68235 34.9604539,30.3892 33.7795414,30.3892 L33.7795414,30.3892 C30.7539766,30.3892 28.2560535,32.7098 28.2560535,35.6659 L28.2560535,35.6659 C28.2560535,38.622 30.7539766,41 33.7795414,41 L33.7795414,41 C34.9604539,41 36.0157374,40.7089 36.8072,40.1267 L36.8072,40.1267 L36.8072,40.7663 L39.4370335,40.7663 L39.4370335,26.9698 L36.8072,26.9698 Z M30.7539766,35.6659 C30.7539766,34.10175 32.2008038,32.7098 33.7795414,32.7098 L33.7795414,32.7098 C35.4901895,32.7098 36.8072,34.10175 36.8072,35.6659 L36.8072,35.6659 C36.8072,37.28745 35.4901895,38.622 33.7795414,38.622 L33.7795414,38.622 C32.2008038,38.622 30.7539766,37.28745 30.7539766,35.6659 L30.7539766,35.6659 Z M20.6450306,26.9698 L20.6450306,31.3158 C19.7216575,30.68235 18.6684678,30.3892 17.4875553,30.3892 L17.4875553,30.3892 C14.4619905,30.3892 12.093884,32.7098 12.093884,35.6659 L12.093884,35.6659 C12.093884,38.622 14.4619905,41 17.4875553,41 L17.4875553,41 C18.6684678,41 19.7216575,40.7089 20.6450306,40.1267 L20.6450306,40.1267 L20.6450306,40.7663 L23.2748641,40.7663 L23.2748641,26.9698 L20.6450306,26.9698 Z M14.5918071,35.6659 C14.5918071,34.10175 15.9088177,32.7098 17.6194657,32.7098 L17.6194657,32.7098 C19.1940157,32.7098 20.6450306,34.10175 20.6450306,35.6659 L20.6450306,35.6659 C20.6450306,37.28745 19.1940157,38.622 17.6194657,38.622 L17.6194657,38.622 C15.9088177,38.622 14.5918071,37.28745 14.5918071,35.6659 L14.5918071,35.6659 Z M52.8102394,33.6692 C52.8102394,34.7147 53.3378812,35.70485 54.2549728,36.17225 L54.2549728,36.17225 C54.9124312,36.4613 55.8295228,36.695 57.0146229,36.8672 L57.0146229,36.8672 C58.0594374,37.0435 59.1105332,37.1009 59.2424437,37.91475 L59.2424437,37.91475 C59.2424437,38.4416 58.5870791,39.13655 57.4061666,39.13655 L57.4061666,39.13655 C55.6976124,39.0812 55.3060687,38.1505 55.3060687,37.4535 L55.3060687,37.4535 L52.5485124,37.4535 C52.678329,39.5486 54.3910709,41 57.27635,41 L57.27635,41 C59.9019959,41 62,40.0119 62,37.4535 L62,37.4535 C62,36.0513 60.9509979,35.06525 59.3722603,34.6573 L59.3722603,34.6573 C57.6678937,34.25345 55.4358853,34.31085 55.4358853,33.26125 L55.4358853,33.26125 C55.5677958,32.5048 56.2210665,32.33055 57.27635,32.33055 L57.27635,32.33055 C58.8488062,32.33055 58.9807166,33.2059 58.9807166,33.7266 L58.9807166,33.7266 L61.6042687,33.7266 C61.4786397,31.693 59.7721793,30.3523 57.1444396,30.3523 L57.1444396,30.3523 C54.3910709,30.3523 52.8102394,31.80575 52.8102394,33.6692 L52.8102394,33.6692 Z M40.3520313,35.64745 C40.3520313,38.61175 42.7243254,41 45.7540779,41 L45.7540779,41 C46.9433656,41 48.000743,40.70685 48.9199284,40.12465 L48.9199284,40.12465 L48.9199284,40.76425 L51.4304144,40.76425 L51.4304144,30.46915 L48.9199284,30.46915 L48.9199284,31.28095 C48.000743,30.64545 46.9433656,30.3523 45.7540779,30.3523 L45.7540779,30.3523 C42.7243254,30.3523 40.3520313,32.68315 40.3520313,35.64745 L40.3520313,35.64745 Z M42.8562359,35.64745 C42.8562359,34.07715 44.1774341,32.68315 45.8901759,32.68315 L45.8901759,32.68315 C47.475195,32.68315 48.9199284,34.07715 48.9199284,35.64745 L48.9199284,35.64745 C48.9199284,37.27515 47.475195,38.61175 45.8901759,38.61175 L45.8901759,38.61175 C44.1774341,38.61175 42.8562359,37.27515 42.8562359,35.64745 L42.8562359,35.64745 Z M24.4934653,40.8032 L27.1379555,40.8032 L27.1379555,30.3523 L24.4934653,30.3523 L24.4934653,40.8032 Z M0,35.64745 C0,38.61175 2.49792307,41 5.38948364,41 L5.38948364,41 C6.57248995,41 7.7596839,40.70685 8.54486508,40.12465 L8.54486508,40.12465 L8.54486508,40.76425 L11.18098,40.76425 L11.18098,30.46915 L8.54486508,30.46915 L8.54486508,31.28095 C7.62777346,30.64545 6.57248995,30.3523 5.38948364,30.3523 L5.38948364,30.3523 C2.49792307,30.3523 0,32.68315 0,35.64745 L0,35.64745 Z M2.49792307,35.64745 C2.49792307,34.07715 3.94684408,32.68315 5.51930026,32.68315 L5.51930026,32.68315 C7.23413596,32.68315 8.54486508,34.07715 8.54486508,35.64745 L8.54486508,35.64745 C8.54486508,37.27515 7.23413596,38.61175 5.51930026,38.61175 L5.51930026,38.61175 C3.94684408,38.61175 2.49792307,37.27515 2.49792307,35.64745 L2.49792307,35.64745 Z" id="path-1"></path>
    </defs>
    <g id="Page-1" stroke="none" stroke-width="1" fill="none" fill-rule="evenodd">
        <g id="Artboard-Copy" transform="translate(-9.000000, -4.000000)">
            <g id="Group-3" transform="translate(9.000000, 4.000000)">
                <mask id="mask-2" fill="white">
                    <use xlink:href="#path-1"></use>
                </mask>
                <g id="Clip-2"></g>
                <polygon id="Fill-1" fill="#FFFFFF" mask="url(#mask-2)" points="-1 42 62 42 62 -1 -1 -1"></polygon>
            </g>
        </g>
    </g>
</svg>