<?xml version="1.0" encoding="UTF-8"?>
<svg width="100px" height="67px" viewBox="0 0 100 67" version="1.1" xmlns="http://www.w3.org/2000/svg" xmlns:xlink="http://www.w3.org/1999/xlink">
    <title>8F17906C-D9D0-4E02-B080-C44EAD1284BC</title>
    <defs>
        <path d="M45.0812198,9.4282 L65.4824221,44.2531 L85.2453481,44.2531 L59.7446895,1 L45.0812198,9.4282 Z M28.0335011,24.595 L39.5326061,44.3059 L39.5326061,48.421 L43.7911587,48.421 L43.7911587,44.3059 L59.3461889,44.3059 L42.9401235,16.378 L28.0335011,24.595 Z M10.8169261,39.4087 L13.5962987,44.2531 L33.4436527,44.2531 L25.5445611,31.1158 L10.8169261,39.4087 Z M59.3664516,44.4148 L59.3664516,51.4108 C58.089899,50.3911 56.3878289,49.9192 54.4831313,49.9192 L54.4831313,49.9192 C49.6031881,49.9192 45.5742798,53.6548 45.5742798,58.4134 L45.5742798,58.4134 C45.5742798,63.172 49.6031881,67 54.4831313,67 L54.4831313,67 C56.3878289,67 58.089899,66.5314 59.3664516,65.5942 L59.3664516,65.5942 L59.3664516,66.6238 L63.6081185,66.6238 L63.6081185,44.4148 L59.3664516,44.4148 Z M49.6031881,58.4134 C49.6031881,55.8955 51.9367803,53.6548 54.4831313,53.6548 L54.4831313,53.6548 C57.2422411,53.6548 59.3664516,55.8955 59.3664516,58.4134 L59.3664516,58.4134 C59.3664516,61.0237 57.2422411,63.172 54.4831313,63.172 L54.4831313,63.172 C51.9367803,63.172 49.6031881,61.0237 49.6031881,58.4134 L49.6031881,58.4134 Z M33.2984365,44.4148 L33.2984365,51.4108 C31.809125,50.3911 30.1104319,49.9192 28.2057344,49.9192 L28.2057344,49.9192 C23.3257911,49.9192 19.5062645,53.6548 19.5062645,58.4134 L19.5062645,58.4134 C19.5062645,63.172 23.3257911,67 28.2057344,67 L28.2057344,67 C30.1104319,67 31.809125,66.5314 33.2984365,65.5942 L33.2984365,65.5942 L33.2984365,66.6238 L37.5401034,66.6238 L37.5401034,44.4148 L33.2984365,44.4148 Z M23.5351727,58.4134 C23.5351727,55.8955 25.6593834,53.6548 28.4184931,53.6548 L28.4184931,53.6548 C30.9580898,53.6548 33.2984365,55.8955 33.2984365,58.4134 L33.2984365,58.4134 C33.2984365,61.0237 30.9580898,63.172 28.4184931,63.172 L28.4184931,63.172 C25.6593834,63.172 23.5351727,61.0237 23.5351727,58.4134 L23.5351727,58.4134 Z M85.1778055,55.1992 C85.1778055,56.8822 86.0288406,58.4761 87.5080206,59.2285 L87.5080206,59.2285 C88.5684374,59.6938 90.0476174,60.07 91.9590692,60.3472 L91.9590692,60.3472 C93.6442539,60.631 95.3395697,60.7234 95.5523285,62.0335 L95.5523285,62.0335 C95.5523285,62.8816 94.4952889,64.0003 92.5905913,64.0003 L92.5905913,64.0003 C89.8348587,63.9112 89.2033366,62.413 89.2033366,61.291 L89.2033366,61.291 L84.7556652,61.291 C84.9650468,64.6636 87.7275337,67 92.3812097,67 L92.3812097,67 C96.6161224,67 100,65.4094 100,61.291 L100,61.291 C100,59.0338 98.3080611,57.4465 95.7617102,56.7898 L95.7617102,56.7898 C93.0127318,56.1397 89.4127182,56.2321 89.4127182,54.5425 L89.4127182,54.5425 C89.6254771,53.3248 90.6791395,53.0443 92.3812097,53.0443 L92.3812097,53.0443 C94.9174294,53.0443 95.1301881,54.4534 95.1301881,55.2916 L95.1301881,55.2916 L99.3617237,55.2916 C99.1590963,52.018 96.4067408,49.8598 92.168451,49.8598 L92.168451,49.8598 C87.7275337,49.8598 85.1778055,52.1995 85.1778055,55.1992 L85.1778055,55.1992 Z M65.0839215,58.3837 C65.0839215,63.1555 68.9102023,67 73.7968998,67 L73.7968998,67 C75.7151058,67 77.4205532,66.5281 78.9031103,65.5909 L78.9031103,65.5909 L78.9031103,66.6205 L82.9522813,66.6205 L82.9522813,50.0479 L78.9031103,50.0479 L78.9031103,51.3547 C77.4205532,50.3317 75.7151058,49.8598 73.7968998,49.8598 L73.7968998,49.8598 C68.9102023,49.8598 65.0839215,53.6119 65.0839215,58.3837 L65.0839215,58.3837 Z M69.1229611,58.3837 C69.1229611,55.8559 71.253926,53.6119 74.0164127,53.6119 L74.0164127,53.6119 C76.5728952,53.6119 78.9031103,55.8559 78.9031103,58.3837 L78.9031103,58.3837 C78.9031103,61.0039 76.5728952,63.1555 74.0164127,63.1555 L74.0164127,63.1555 C71.253926,63.1555 69.1229611,61.0039 69.1229611,58.3837 L69.1229611,58.3837 Z M39.5055892,66.6832 L43.770896,66.6832 L43.770896,49.8598 L39.5055892,49.8598 L39.5055892,66.6832 Z M0,58.3837 C0,63.1555 4.02890818,67 8.69271555,67 L8.69271555,67 C10.6007902,67 12.5156192,66.5281 13.7820405,65.5909 L13.7820405,65.5909 L13.7820405,66.6205 L18.0338387,66.6205 L18.0338387,50.0479 L13.7820405,50.0479 L13.7820405,51.3547 C12.3028604,50.3317 10.6007902,49.8598 8.69271555,49.8598 L8.69271555,49.8598 C4.02890818,49.8598 0,53.6119 0,58.3837 L0,58.3837 Z M4.02890818,58.3837 C4.02890818,55.8559 6.36587755,53.6119 8.90209719,53.6119 L8.90209719,53.6119 C11.6679612,53.6119 13.7820405,55.8559 13.7820405,58.3837 L13.7820405,58.3837 C13.7820405,61.0039 11.6679612,63.1555 8.90209719,63.1555 L8.90209719,63.1555 C6.36587755,63.1555 4.02890818,61.0039 4.02890818,58.3837 L4.02890818,58.3837 Z" id="path-1"></path>
    </defs>
    <g id="Page-1" stroke="none" stroke-width="1" fill="none" fill-rule="evenodd" opacity="1">
        <g id="Footer-con-sponsors-Siempre-desplegados/1440" transform="translate(-577.000000, -322.000000)">
            <g id="Group-4" transform="translate(577.000000, 239.000000)">
                <g id="adidas" transform="translate(0.000000, 83.000000)">
                    <mask id="mask-2" fill="white">
                        <use xlink:href="#path-1"></use>
                    </mask>
                    <use id="path-1" fill="#FFFFFF" xlink:href="#path-1"></use>
                </g>
            </g>
        </g>
    </g>
</svg>