<?xml version="1.0" encoding="UTF-8"?>
<svg width="103px" height="34px" viewBox="0 0 103 34" version="1.1" xmlns="http://www.w3.org/2000/svg" xmlns:xlink="http://www.w3.org/1999/xlink">
    <title>50735BC1-C653-4747-96DC-218BAF579A0C</title>
    <defs>
        <polygon id="path-1" points="0 0 102 0 102 34 0 34"></polygon>
    </defs>
    <g id="Page-1" stroke="none" stroke-width="1" fill="none" fill-rule="evenodd">
        <g id="Logos-sponsors" transform="translate(-569.000000, -342.000000)">
            <g id="Group-3" transform="translate(569.500000, 342.000000)">
                <mask id="mask-2" fill="white">
                    <use xlink:href="#path-1"></use>
                </mask>
                <g id="Clip-2"></g>
                <path d="M76.1340912,20.7550943 L78.7974835,20.7550943 L78.7974835,7.39028523 L76.1340912,7.63027229 L76.1340912,20.7550943 Z M77.4538421,1.96758738 C76.4460208,1.96758738 75.6302257,2.75940043 75.6302257,3.79111039 C75.6302257,4.79892983 76.4460208,5.59065273 77.4538421,5.59065273 C78.461483,5.59065273 79.2773683,4.79892983 79.2773683,3.79111039 C79.2534777,2.78338111 78.461483,1.96758738 77.4538421,1.96758738 L77.4538421,1.96758738 Z M99.1687427,7.39028523 L95.329574,16.1963318 L91.2265273,7.39028523 L85.8997427,7.39028523 L85.8997427,6.23858174 C85.8997427,4.87087186 86.5476729,4.29497504 87.8673336,4.29497504 C88.2751861,4.29497504 88.755161,4.36700721 89.2349557,4.48691059 L89.8349244,2.39950999 C89.0430198,2.13554226 88.1792632,1.99156805 87.2194936,1.99156805 C84.6282237,1.99156805 83.2364406,3.64713619 83.2364406,6.07062685 L83.2364406,7.4142659 L80.9570102,7.60620146 L80.9570102,9.71767289 L83.2364406,9.71767289 L83.2364406,20.7791651 L85.8998329,20.7791651 L85.8998329,9.69369221 L89.3790203,9.69369221 L94.0099133,19.1954489 C93.6259514,20.0354036 93.1460665,20.9711007 92.4023037,21.5469074 C91.7303928,22.074933 90.8907071,22.1228042 90.0749119,21.9549395 L89.4510526,24.1142821 C90.6506294,24.5462047 92.1623162,24.4983335 93.2901312,23.8983658 C94.5137788,23.2265463 95.329574,21.97883 95.881401,20.7311136 L102,7.36630455 L99.1687427,7.36630455 L99.1687427,7.39028523 Z M67.2801578,18.7636164 C65.0486888,18.7397259 63.177111,16.9400934 63.177111,14.0606994 C63.177111,11.1813956 65.0247081,9.38176313 67.2801578,9.35778245 C69.5116267,9.38176313 71.3832946,11.1813956 71.3832946,14.0606994 C71.3832946,16.9400934 69.5116267,18.7636164 67.2801578,18.7636164 L67.2801578,18.7636164 Z M67.2801578,7.03039479 C65.6485674,7.03039479 64.2090031,7.65425296 63.1532205,8.68596293 L63.1532205,2.35145849 L60.6577833,2.56737472 L60.6577833,20.7791651 L63.1532205,20.7791651 L63.1532205,19.4834874 C64.2090031,20.5151974 65.6485674,21.1390556 67.2801578,21.1390556 C71.0472941,21.1149847 73.9505837,18.1877196 73.9505837,14.0846801 C73.9505837,9.98164062 71.0472941,7.05437547 67.2801578,7.03039479 L67.2801578,7.03039479 Z M38.1030167,9.38176313 C39.5666518,9.4057438 40.8864027,10.2456084 41.6061849,11.5652667 L43.7657116,10.2456084 C42.6140962,8.27811114 40.5504022,7.03039479 38.1030167,7.03039479 C34.3118996,7.05437547 31.4325907,9.98164062 31.4325907,14.0846801 C31.4325907,18.1877196 34.3118996,21.1149847 38.1030167,21.1390556 C40.5504022,21.1390556 42.6140962,19.8913392 43.7657116,17.9237518 L41.6061849,16.6040935 C40.8864027,17.9237518 39.5666518,18.7875971 38.1030167,18.7875971 C35.8715478,18.7636164 33.9999699,16.9639839 33.9999699,14.0846801 C33.9999699,11.2053763 35.8715478,9.4057438 38.1030167,9.38176313 L38.1030167,9.38176313 Z M51.4439588,18.7636164 C49.2123998,18.7397259 47.3408219,16.9400934 47.3408219,14.0606994 C47.3408219,11.1813956 49.188419,9.38176313 51.4439588,9.35778245 C53.6754277,9.38176313 55.5470055,11.1813956 55.5470055,14.0606994 C55.5229347,16.9400934 53.6754277,18.7636164 51.4439588,18.7636164 L51.4439588,18.7636164 Z M55.5708961,8.68596293 C54.5152036,7.65425296 53.0755492,7.03039479 51.4439588,7.03039479 C47.6768224,7.05437547 44.7735328,9.98164062 44.7735328,14.0846801 C44.7735328,18.1877196 47.6527516,21.1149847 51.4439588,21.1390556 C53.0755492,21.1390556 54.5152036,20.5151974 55.5708961,19.4834874 L55.5708961,20.7791651 L58.0663332,20.7791651 L58.0663332,7.39028523 L55.5708961,7.60620146 L55.5708961,8.68596293 Z M9.11781151,19.0755455 L14.1087759,24.0663207 L19.0994698,19.0755455 C20.011278,18.1637389 21.4990742,18.1637389 22.4107021,19.0755455 C23.3225103,19.9872619 23.3225103,21.4749653 22.4107021,22.3868621 L14.1087759,30.6888637 L5.78277882,22.3868621 C3.6712135,20.2512297 2.35137249,17.3238743 2.35137249,14.0846801 C2.35137249,7.60620146 7.60630506,2.35145849 14.0846148,2.35145849 C17.3239951,2.35145849 20.2511753,3.67111686 22.3867213,5.78267844 C23.2986197,6.69448503 23.2986197,8.18209828 22.3867213,9.09381471 C21.4750033,10.0056213 19.9873874,10.0056213 19.0754891,9.09381471 C17.8037898,7.82211769 16.0283151,7.03039479 14.0846148,7.03039479 C10.1975749,7.03039479 7.03031706,10.1735762 7.03031706,14.0846801 C7.05429778,16.0281967 7.82222167,17.8039386 9.11781151,19.0755455 L9.11781151,19.0755455 Z M14.0846148,9.38176313 C15.380385,9.38176313 16.5560712,9.9096986 17.3958471,10.749473 C19.2194635,12.5730862 22.1947854,12.5730862 24.0424727,10.749473 C25.8659989,8.92594999 25.8659989,5.95063332 24.0424727,4.10303948 C21.4990742,1.58362611 17.9718351,0 14.0846148,0 C6.31053492,0 0,6.31052376 0,14.0846801 C0,17.9717132 1.58362891,21.498946 4.12702745,24.0423401 L14.0846148,34 L24.0424727,24.0423401 C25.8659989,22.2187269 25.8659989,19.2434102 24.0424727,17.3959065 C22.2187662,15.5722934 19.2435344,15.5722934 17.3958471,17.3959065 L14.0846148,20.7311136 L10.7734727,17.3959065 C9.93360668,16.5561321 9.40576043,15.3803578 9.40576043,14.0846801 C9.38177971,11.4933247 11.4932549,9.38176313 14.0846148,9.38176313 L14.0846148,9.38176313 Z" id="Fill-1" fill="#FEFEFE" mask="url(#mask-2)"></path>
            </g>
        </g>
    </g>
</svg>