<?xml version="1.0" encoding="utf-8"?>
<!-- Generator: Adobe Illustrator 26.2.1, SVG Export Plug-In . SVG Version: 6.00 Build 0)  -->
<svg version="1.1" id="LOGOS" xmlns="http://www.w3.org/2000/svg" xmlns:xlink="http://www.w3.org/1999/xlink" x="0px" y="0px"
	 viewBox="0 0 81.8 44" style="enable-background:new 0 0 81.8 44;" xml:space="preserve">
<style type="text/css">
	.st0{fill:#FFFFFF;}
</style>
<g>
	<g>
		<g>
			<g>
				<polygon class="st0" points="72.5,31.1 73,31.1 73.2,30.5 72.5,30.5 72.5,30 73.4,30 73.7,29.4 71.6,29.4 71.6,32 72.5,32 				
					"/>
				<rect x="73.9" y="29.4" class="st0" width="0.8" height="2.6"/>
				<polygon class="st0" points="76.1,31.1 76.7,31.1 76.9,30.5 76.1,30.5 76.1,30 77.1,30 77.3,29.4 75.3,29.4 75.3,32 76.1,32 
									"/>
				<path class="st0" d="M77.7,32l0.1-0.4h0.9l0.1,0.4h0.8l-1-2.6h-0.9l-1,2.6H77.7z M78.3,30.1l0.3,1.1h-0.6L78.3,30.1z"/>
				<path class="st0" d="M79.4,30.1c0,0,0.1,0.1,0.1,0.1c0,0,0.1,0,0.2,0c0.1,0,0.1,0,0.2,0c0,0,0.1,0,0.1-0.1C80,30,80,30,80,30
					c0,0,0-0.1,0-0.2c0-0.1,0-0.1,0-0.2c0,0,0-0.1-0.1-0.1c0,0-0.1-0.1-0.1-0.1c0,0-0.1,0-0.2,0c-0.1,0-0.1,0-0.2,0
					c0,0-0.1,0-0.1,0.1c0,0-0.1,0.1-0.1,0.1c0,0,0,0.1,0,0.2c0,0.1,0,0.1,0,0.2C79.3,30,79.3,30,79.4,30.1z M79.4,29.7
					c0,0,0-0.1,0.1-0.1c0,0,0.1-0.1,0.1-0.1c0,0,0.1,0,0.1,0c0,0,0.1,0,0.1,0c0,0,0.1,0,0.1,0.1c0,0,0,0.1,0.1,0.1c0,0,0,0.1,0,0.1
					c0,0,0,0.1,0,0.1c0,0,0,0.1-0.1,0.1c0,0-0.1,0.1-0.1,0.1c0,0-0.1,0-0.1,0c0,0-0.1,0-0.1,0c0,0-0.1,0-0.1-0.1c0,0,0-0.1-0.1-0.1
					c0,0,0-0.1,0-0.1C79.3,29.8,79.4,29.7,79.4,29.7z"/>
				<path class="st0" d="M79.6,29.8L79.6,29.8l0.2,0.2h0.1l-0.1-0.2c0,0,0.1,0,0.1,0c0,0,0,0,0-0.1c0,0,0-0.1,0-0.1c0,0-0.1,0-0.1,0
					h-0.2V30h0.1V29.8z M79.6,29.6L79.6,29.6c0.1,0,0.1,0,0.1,0c0,0,0,0,0,0c0,0,0,0,0,0c0,0,0,0,0,0c0,0,0,0,0,0c0,0,0,0,0,0
					c0,0,0,0,0,0c0,0,0,0,0,0h-0.1V29.6z"/>
				<path class="st0" d="M72.5,36.7c0,0,0.1,0.1,0.1,0.1c0.1,0,0.1,0,0.2,0c0.1,0,0.1,0,0.2,0c0.1,0,0.1-0.1,0.1-0.1
					c0,0,0.1-0.1,0.1-0.1c0-0.1,0-0.1,0-0.2c0-0.1,0-0.1,0-0.2c0-0.1,0-0.1-0.1-0.1c0,0-0.1-0.1-0.1-0.1c-0.1,0-0.1,0-0.2,0
					c-0.1,0-0.1,0-0.2,0c-0.1,0-0.1,0.1-0.1,0.1c0,0-0.1,0.1-0.1,0.1c0,0.1,0,0.1,0,0.2c0,0.1,0,0.1,0,0.2
					C72.4,36.6,72.5,36.7,72.5,36.7z M72.6,36.2C72.7,36.2,72.7,36.2,72.6,36.2c0.1-0.1,0.1-0.1,0.1-0.2c0,0,0.1,0,0.1,0
					c0,0,0.1,0,0.1,0c0,0,0,0,0.1,0.1c0,0,0,0.1,0,0.1c0,0,0,0.1,0,0.1c0,0,0,0.1,0,0.1s0,0.1,0,0.1c0,0,0,0-0.1,0.1
					c0,0-0.1,0-0.1,0c0,0-0.1,0-0.1,0c0,0,0,0-0.1-0.1c0,0,0-0.1,0-0.1s0-0.1,0-0.1C72.6,36.3,72.6,36.3,72.6,36.2z"/>
				<polygon class="st0" points="73.7,36.4 74.1,36.4 74.1,36.3 73.7,36.3 73.7,36.1 74.1,36.1 74.1,35.9 73.5,35.9 73.5,36.8 
					73.7,36.8 				"/>
				<polygon class="st0" points="74.5,36.4 74.9,36.4 74.9,36.3 74.5,36.3 74.5,36.1 74.9,36.1 74.9,35.9 74.3,35.9 74.3,36.8 
					74.5,36.8 				"/>
				<rect x="75.1" y="35.9" class="st0" width="0.2" height="0.9"/>
				<path class="st0" d="M75.7,36.7c0.1,0,0.1,0.1,0.2,0.1c0.1,0,0.1,0,0.2,0c0.1,0,0.1,0,0.2,0c0,0,0.1,0,0.1,0l0-0.2
					c0,0-0.1,0-0.1,0c0,0-0.1,0-0.1,0c0,0-0.1,0-0.1,0c0,0-0.1,0-0.1-0.1c0,0,0-0.1-0.1-0.1c0,0,0-0.1,0-0.1c0,0,0-0.1,0-0.1
					c0,0,0-0.1,0.1-0.1c0,0,0.1,0,0.1-0.1c0,0,0.1,0,0.1,0c0,0,0.1,0,0.1,0c0,0,0.1,0,0.1,0l0-0.2c0,0-0.1,0-0.1,0c0,0-0.1,0-0.1,0
					c-0.1,0-0.1,0-0.2,0c-0.1,0-0.1,0-0.2,0.1c0,0-0.1,0.1-0.1,0.1c0,0.1,0,0.1,0,0.2c0,0.1,0,0.2,0,0.2
					C75.6,36.6,75.7,36.7,75.7,36.7z"/>
				<rect x="76.6" y="35.9" class="st0" width="0.2" height="0.9"/>
				<path class="st0" d="M77.3,36.6h0.3l0.1,0.2H78l-0.4-0.9h-0.3L77,36.8h0.2L77.3,36.6z M77.5,36.1L77.5,36.1l0.1,0.4h-0.2
					L77.5,36.1z"/>
				<polygon class="st0" points="78.8,36.6 78.4,36.6 78.4,35.9 78.1,35.9 78.1,36.8 78.8,36.8 				"/>
				<polygon class="st0" points="73,38.2 72.6,38.2 72.6,37.4 72.4,37.4 72.4,38.4 73,38.4 				"/>
				<rect x="73.2" y="37.4" class="st0" width="0.2" height="0.9"/>
				<path class="st0" d="M73.8,37.5c0,0-0.1,0.1-0.1,0.1c0,0.1,0,0.1,0,0.2c0,0.1,0,0.2,0,0.2c0,0.1,0.1,0.1,0.1,0.1
					c0.1,0,0.1,0.1,0.2,0.1c0.1,0,0.1,0,0.2,0c0.1,0,0.1,0,0.2,0c0,0,0.1,0,0.1,0l0-0.2c0,0-0.1,0-0.1,0c0,0-0.1,0-0.1,0
					c0,0-0.1,0-0.1,0c0,0-0.1,0-0.1-0.1c0,0,0-0.1-0.1-0.1c0,0,0-0.1,0-0.1c0,0,0-0.1,0-0.1c0,0,0-0.1,0.1-0.1c0,0,0.1,0,0.1-0.1
					c0,0,0.1,0,0.1,0c0,0,0.1,0,0.1,0c0,0,0.1,0,0.1,0l0-0.2c0,0-0.1,0-0.1,0c0,0-0.1,0-0.1,0c-0.1,0-0.1,0-0.2,0
					C73.9,37.5,73.8,37.5,73.8,37.5z"/>
				<polygon class="st0" points="74.9,38 75.2,38 75.2,37.8 74.9,37.8 74.9,37.6 75.3,37.6 75.3,37.4 74.6,37.4 74.6,38.4 
					75.3,38.4 75.3,38.2 74.9,38.2 				"/>
				<polygon class="st0" points="75.7,37.7 75.7,37.7 76,38.4 76.3,38.4 76.3,37.4 76.1,37.4 76.1,38.1 76.1,38.1 75.8,37.4 
					75.5,37.4 75.5,38.4 75.7,38.4 				"/>
				<path class="st0" d="M76.7,37.9c0,0,0.1,0,0.1,0c0,0,0.1,0,0.1,0c0,0,0.1,0,0.1,0c0,0,0,0,0,0.1c0,0,0,0,0,0c0,0,0,0,0,0
					c0,0,0,0,0,0c0,0,0,0-0.1,0c-0.1,0-0.1,0-0.1,0c0,0-0.1,0-0.1,0l0,0.2c0,0,0.1,0,0.1,0c0,0,0.1,0,0.1,0c0.1,0,0.1,0,0.1,0
					c0,0,0.1,0,0.1,0c0,0,0.1-0.1,0.1-0.1c0,0,0-0.1,0-0.1c0-0.1,0-0.1,0-0.1c0,0,0-0.1-0.1-0.1c0,0-0.1,0-0.1,0c0,0-0.1,0-0.1,0
					c0,0-0.1,0-0.1,0c0,0,0,0,0-0.1c0,0,0,0,0,0c0,0,0,0,0,0c0,0,0,0,0.1,0c0,0,0,0,0.1,0c0,0,0.1,0,0.1,0c0,0,0.1,0,0.1,0l0-0.2
					c0,0-0.1,0-0.1,0c0,0-0.1,0-0.1,0c0,0-0.1,0-0.1,0c0,0-0.1,0-0.1,0c0,0-0.1,0-0.1,0.1c0,0,0,0.1,0,0.1
					C76.6,37.8,76.6,37.8,76.7,37.9C76.6,37.9,76.6,37.9,76.7,37.9z"/>
				<polygon class="st0" points="78.1,37.6 78.1,37.4 77.4,37.4 77.4,38.4 78.1,38.4 78.1,38.2 77.7,38.2 77.7,38 78.1,38 
					78.1,37.8 77.7,37.8 77.7,37.6 				"/>
				<path class="st0" d="M78.3,37.4v0.9h0.3c0.1,0,0.2,0,0.2,0c0.1,0,0.1,0,0.2-0.1c0,0,0.1-0.1,0.1-0.1c0-0.1,0-0.1,0-0.2
					c0-0.1,0-0.2,0-0.2c0-0.1-0.1-0.1-0.1-0.1c0,0-0.1-0.1-0.2-0.1c-0.1,0-0.1,0-0.2,0H78.3z M78.9,37.7c0,0,0.1,0.1,0.1,0.2
					c0,0.1,0,0.2-0.1,0.2c0,0-0.1,0.1-0.2,0.1h-0.1v-0.6h0.1C78.7,37.6,78.8,37.6,78.9,37.7z"/>
				<path class="st0" d="M72.6,39.6L72.6,39.6c0.2,0,0.3,0,0.4-0.1c0.1-0.1,0.1-0.1,0.1-0.2c0-0.1,0-0.2-0.1-0.2
					c-0.1,0-0.2-0.1-0.3-0.1h-0.3v0.9h0.2V39.6z M72.6,39.2L72.6,39.2c0.1,0,0.1,0,0.1,0c0,0,0,0,0,0c0,0,0,0,0,0c0,0,0,0,0,0.1
					s0,0,0,0.1c0,0,0,0,0,0c0,0,0,0,0,0c0,0,0,0-0.1,0h-0.1V39.2z"/>
				<path class="st0" d="M73.9,39.6C73.9,39.6,73.9,39.5,73.9,39.6c0-0.1,0-0.1-0.1-0.1c0,0,0,0,0,0v0c0.1,0,0.1,0,0.1-0.1
					c0,0,0-0.1,0-0.2c0,0,0-0.1,0-0.1c0,0,0-0.1-0.1-0.1c0,0-0.1,0-0.1,0c0,0-0.1,0-0.1,0h-0.4v0.9h0.2v-0.4h0.1c0,0,0,0,0.1,0
					c0,0,0,0,0,0c0,0,0,0,0,0.1c0,0,0,0.1,0,0.1l0.1,0.2H74L73.9,39.6C73.9,39.6,73.9,39.6,73.9,39.6z M73.7,39.3
					C73.7,39.3,73.7,39.4,73.7,39.3c-0.1,0-0.1,0-0.1,0c0,0,0,0-0.1,0h-0.1v-0.2h0.1c0,0,0,0,0.1,0c0,0,0,0,0.1,0c0,0,0,0,0,0
					C73.7,39.2,73.7,39.3,73.7,39.3C73.7,39.3,73.7,39.3,73.7,39.3z"/>
				<path class="st0" d="M75,39.1c0,0-0.1-0.1-0.1-0.1c-0.1,0-0.1,0-0.2,0c-0.1,0-0.1,0-0.2,0c-0.1,0-0.1,0.1-0.1,0.1
					c0,0-0.1,0.1-0.1,0.1c0,0.1,0,0.1,0,0.2c0,0.1,0,0.1,0,0.2c0,0.1,0,0.1,0.1,0.1c0,0,0.1,0.1,0.1,0.1c0.1,0,0.1,0,0.2,0
					c0.1,0,0.1,0,0.2,0c0.1,0,0.1-0.1,0.1-0.1c0,0,0.1-0.1,0.1-0.1c0-0.1,0-0.1,0-0.2c0-0.1,0-0.1,0-0.2C75,39.2,75,39.2,75,39.1z
					 M74.8,39.6C74.8,39.6,74.8,39.6,74.8,39.6c-0.1,0.1-0.1,0.1-0.1,0.2c0,0-0.1,0-0.1,0s-0.1,0-0.1,0c0,0,0,0-0.1-0.1
					c0,0,0-0.1,0-0.1c0,0,0-0.1,0-0.1c0,0,0-0.1,0-0.1c0,0,0-0.1,0-0.1c0,0,0,0,0.1-0.1c0,0,0.1,0,0.1,0s0.1,0,0.1,0
					c0,0,0,0,0.1,0.1c0,0,0,0.1,0,0.1c0,0,0,0.1,0,0.1C74.8,39.5,74.8,39.5,74.8,39.6z"/>
				<path class="st0" d="M76,39.1c0,0-0.1-0.1-0.2-0.1c-0.1,0-0.1,0-0.2,0h-0.3v0.9h0.3c0.1,0,0.2,0,0.2,0c0.1,0,0.1,0,0.2-0.1
					c0,0,0.1-0.1,0.1-0.1c0-0.1,0-0.1,0-0.2c0-0.1,0-0.2,0-0.2C76.1,39.2,76.1,39.1,76,39.1z M75.8,39.7c0,0-0.1,0.1-0.2,0.1h-0.1
					v-0.6h0.1c0.1,0,0.2,0,0.2,0.1c0,0,0.1,0.1,0.1,0.2C75.9,39.5,75.9,39.6,75.8,39.7z"/>
				<path class="st0" d="M76.5,39.8c0,0,0.1,0.1,0.1,0.1c0,0,0.1,0,0.2,0c0.1,0,0.1,0,0.2,0c0,0,0.1,0,0.1-0.1c0,0,0.1-0.1,0.1-0.1
					c0,0,0-0.1,0-0.2V39h-0.2v0.5c0,0,0,0.1,0,0.1c0,0,0,0.1,0,0.1c0,0,0,0,0,0c0,0,0,0-0.1,0c0,0-0.1,0-0.1,0c0,0,0,0,0,0
					c0,0,0,0,0-0.1c0,0,0-0.1,0-0.1V39h-0.2v0.6c0,0.1,0,0.1,0,0.2C76.4,39.8,76.4,39.8,76.5,39.8z"/>
				<path class="st0" d="M78,39.7c0,0-0.1,0-0.1,0c0,0-0.1,0-0.1,0c0,0-0.1,0-0.1-0.1c0,0,0-0.1-0.1-0.1c0,0,0-0.1,0-0.1
					c0,0,0-0.1,0-0.1c0,0,0-0.1,0.1-0.1c0,0,0.1,0,0.1-0.1c0,0,0.1,0,0.1,0c0,0,0.1,0,0.1,0c0,0,0.1,0,0.1,0l0-0.2c0,0-0.1,0-0.1,0
					c0,0-0.1,0-0.1,0c-0.1,0-0.1,0-0.2,0c-0.1,0-0.1,0-0.2,0.1c0,0-0.1,0.1-0.1,0.1c0,0.1,0,0.1,0,0.2c0,0.1,0,0.2,0,0.2
					c0,0.1,0.1,0.1,0.1,0.1c0.1,0,0.1,0.1,0.2,0.1c0.1,0,0.1,0,0.2,0c0.1,0,0.1,0,0.2,0c0,0,0.1,0,0.1,0l0-0.2
					C78.1,39.7,78.1,39.7,78,39.7z"/>
				<polygon class="st0" points="78.3,39.2 78.5,39.2 78.5,39.9 78.7,39.9 78.7,39.2 79,39.2 79,39 78.3,39 				"/>
				<path class="st0" d="M69.9,27.2v14.5h11.6V27.2H69.9z M81.4,41.6H70.1v-7.1h11.4V41.6z M81.4,34.4H70.1v-7.1h11.4V34.4z"/>
			</g>
		</g>
		<g>
			<path class="st0" d="M2.9,27.2h10.8l-0.6,3.2H6.3l-0.5,2.7h5.5l-0.6,3.2H5.3l-1,5.5h-4L2.9,27.2z"/>
			<path class="st0" d="M15.1,27.2h4l-2.6,14.5h-4L15.1,27.2z"/>
			<path class="st0" d="M20.5,27.2h10.8l-0.6,3.2H24l-0.5,2.7H29l-0.6,3.2H23l-1,5.5h-4L20.5,27.2z"/>
			<path class="st0" d="M34.8,27.2h4.5l2.3,14.6h-4l-0.3-2.5h-5L31,41.8h-3.9L34.8,27.2z M36.9,36.2l-0.7-5.2h-0.1l-2.4,5.2H36.9z"
				/>
			<path class="st0" d="M44.2,39.5l4.9-4.6c1.1-1,2.8-2.6,2.8-4c0-0.8-0.6-1.1-1.3-1.1c-1.3,0-1.6,1.1-1.8,2.1h-3.7
				c0-0.1,0.1-0.7,0.1-0.8c0.6-3,3.1-4.3,6-4.3c2.3,0,4.4,0.9,4.4,3.5c0,2.9-3,5.1-4.9,6.9l-1.4,1.2l0,0.1h5.1L54,41.8H43.8
				L44.2,39.5z"/>
			<path class="st0" d="M55.6,38.7c0-0.5,0.1-0.9,0.2-1.4h3.6c0,0.2-0.1,0.4-0.1,0.6c0,0.8,0.9,1.1,1.6,1.1c1.1,0,1.8-0.9,1.8-1.9
				c0-1-1-1.4-1.8-1.4h-0.7l0.5-2.6h0.8c1.1,0.1,2.1-0.6,2.1-1.9c0-0.8-0.5-1.2-1.3-1.2c-1.2,0-1.7,0.5-1.9,1.6h-3.6l0.1-0.5
				c0.5-2.9,3.1-4.3,5.9-4.3c2.2,0,4.5,1,4.5,3.5c0,1.8-0.9,3.4-2.7,3.9l0,0.1c1.3,0.4,2.1,1.3,2.1,2.7c0,3.4-3.6,5.1-6.5,5
				C58.1,42,55.6,41.3,55.6,38.7z"/>
		</g>
	</g>
	<g>
		<path class="st0" d="M41.6,15h-0.7v0.9h0.7c0.1,0,0.1,0,0.2-0.1c0,0,0.1-0.1,0.1-0.2v-0.4c0-0.1,0-0.1-0.1-0.2
			C41.7,15,41.7,15,41.6,15z"/>
		<path class="st0" d="M38.9,15h-0.5c-0.1,0-0.1,0-0.2,0.1c0,0-0.1,0.1-0.1,0.2v1.6c0,0.1,0,0.1,0.1,0.2c0,0.1,0.1,0.1,0.2,0.1h0.5
			c0.1,0,0.1,0,0.2-0.1c0,0,0.1-0.1,0.1-0.2v-1.6c0-0.1,0-0.1-0.1-0.2C39,15,38.9,15,38.9,15z"/>
		<path class="st0" d="M36.2,15h-0.8v1h0.8c0.1,0,0.1,0,0.2-0.1c0,0,0.1-0.1,0.1-0.2v-0.5c0-0.1,0-0.1-0.1-0.2
			C36.3,15,36.2,15,36.2,15z"/>
		<path class="st0" d="M39.8,1c-6.5,0-11.7,5.2-11.7,11.7s5.2,11.7,11.7,11.7c6.5,0,11.7-5.2,11.7-11.7S46.3,1,39.8,1z M35.4,6.4h6
			l-0.9,1.5l-6,0L35.4,6.4z M34.2,17c0,0.2-0.1,0.3-0.2,0.5c-0.1,0.1-0.3,0.2-0.5,0.2h-0.8c-0.2,0-0.3-0.1-0.5-0.2
			c-0.1-0.1-0.2-0.3-0.2-0.5v-0.3h0.5l0.1,0.3c0,0.1,0.1,0.2,0.3,0.2h0.5c0.1,0,0.1,0,0.2-0.1c0,0,0.1-0.1,0.1-0.2v-0.3
			c0-0.2-0.1-0.3-0.2-0.3h-0.7c-0.2,0-0.3-0.1-0.5-0.2c-0.1-0.1-0.2-0.3-0.2-0.5v-0.5c0-0.2,0.1-0.3,0.2-0.5
			c0.1-0.1,0.3-0.2,0.5-0.2h0.8c0.2,0,0.3,0.1,0.5,0.2c0.1,0.1,0.2,0.3,0.2,0.5v0.3h-0.5l-0.1-0.3c0-0.1-0.1-0.2-0.2-0.2h-0.5
			c-0.1,0-0.1,0-0.2,0.1c0,0-0.1,0.1-0.1,0.2v0.3c0,0.2,0.1,0.2,0.2,0.2h0.7c0.2,0,0.3,0.1,0.5,0.2c0.1,0.1,0.2,0.3,0.2,0.5V17z
			 M37,15.8c0,0.2-0.1,0.3-0.2,0.5c-0.1,0.1-0.3,0.2-0.5,0.2h-0.9v1.2h-0.6v-3.2h1.4c0.2,0,0.3,0.1,0.5,0.2c0.1,0.1,0.2,0.3,0.2,0.5
			V15.8z M39.6,17c0,0.2-0.1,0.4-0.2,0.5c-0.1,0.1-0.3,0.2-0.5,0.2h-0.8c-0.2,0-0.3-0.1-0.5-0.2c-0.1-0.1-0.2-0.3-0.2-0.5v-1.8
			c0-0.2,0.1-0.3,0.2-0.5c0.1-0.1,0.3-0.2,0.5-0.2H39c0.2,0,0.3,0.1,0.5,0.2c0.1,0.1,0.2,0.3,0.2,0.5V17z M39.8,13.7l-7.6,0l1.9-2.9
			h-1.4l0.9-1.5h5.7l-0.9,1.5h-2.5l-0.9,1.5h4.1l3.7-5.9l4.7,7.4h-1.8l-0.9-1.5h-2.8l0.9-1.5h0.9l-1-1.7L39.8,13.7z M41.9,17.6
			l-0.5-1.2h-0.5v1.2h-0.6v-3.2h1.4c0.2,0,0.3,0.1,0.5,0.2c0.1,0.1,0.2,0.3,0.2,0.5v0.6c0,0.1,0,0.3-0.1,0.4
			c-0.1,0.1-0.2,0.2-0.3,0.2l0.6,1.3H41.9z M44.9,15h-0.8v2.7h-0.6V15h-0.8v-0.5h2.2V15z M47.5,17c0,0.2-0.1,0.3-0.2,0.5
			c-0.1,0.1-0.3,0.2-0.5,0.2H46c-0.2,0-0.3-0.1-0.5-0.2c-0.1-0.1-0.2-0.3-0.2-0.5v-0.3h0.5l0.1,0.3c0,0.1,0.1,0.2,0.3,0.2h0.5
			c0.1,0,0.1,0,0.2-0.1c0,0,0.1-0.1,0.1-0.2v-0.3c0-0.2-0.1-0.3-0.2-0.3H46c-0.2,0-0.3-0.1-0.5-0.2c-0.1-0.1-0.2-0.3-0.2-0.5v-0.5
			c0-0.2,0.1-0.3,0.2-0.5c0.1-0.1,0.3-0.2,0.5-0.2h0.8c0.2,0,0.3,0.1,0.5,0.2c0.1,0.1,0.2,0.3,0.2,0.5v0.3H47l-0.1-0.3
			c0-0.1-0.1-0.2-0.2-0.2h-0.5c-0.1,0-0.1,0-0.2,0.1c0,0-0.1,0.1-0.1,0.2v0.3c0,0.2,0.1,0.2,0.2,0.2h0.7c0.2,0,0.3,0.1,0.5,0.2
			c0.1,0.1,0.2,0.3,0.2,0.5V17z M47.8,14.6h-0.1v0.3h-0.1v-0.3h-0.1v-0.1L47.8,14.6L47.8,14.6z M48.2,14.9v-0.2c0,0,0,0,0,0
			c0,0,0,0,0,0L48,14.8h0l-0.1-0.2c0,0,0,0,0,0c0,0,0,0,0,0v0.2h-0.1v-0.3h0.1l0.1,0.2l0.1-0.2h0L48.2,14.9L48.2,14.9z"/>
	</g>
</g>
</svg>
