<?xml version="1.0" encoding="UTF-8"?>
<svg width="67px" height="58px" viewBox="0 0 67 58" version="1.1" xmlns="http://www.w3.org/2000/svg" xmlns:xlink="http://www.w3.org/1999/xlink">
    <title>CB690F65-F62B-4257-9F41-811032B59731</title>
    <defs>
        <polygon id="path-1" points="0 0 1.91177778 0 1.91177778 1.71866 0 1.71866"></polygon>
    </defs>
    <g id="Page-1" stroke="none" stroke-width="1" fill="none" fill-rule="evenodd">
        <g id="Logos-sponsors" transform="translate(-187.000000, -334.000000)">
            <g id="Group" transform="translate(187.000000, 334.193800)">
                <path d="M4.35597807,52.8348213 L4.35206153,54.4431686 L5.82918536,54.4431686 L5.82918536,55.6735601 C5.48746707,55.8144698 5.26833654,55.8627319 4.91663106,55.8627319 C3.48807235,55.8627319 2.48759168,54.7709241 2.48759168,53.3112394 C2.48759168,51.9504047 3.42168696,50.9489187 4.70748772,50.9489187 C5.91319519,50.9489187 6.35302286,51.5036415 6.52593819,51.6895183 L7.92336039,51.6895183 L7.92336039,48.8062 L6.55413729,48.8062 L6.55413729,49.2324179 C5.99622588,49.0244453 5.39386171,48.9209435 4.72099979,48.9209435 C1.9768746,48.9209435 0,50.8109164 0,53.4527306 C0,56.0203104 1.89756462,57.8062 4.6315068,57.8062 C5.91319519,57.8062 7.07307911,57.4582868 8.07884711,56.7752528 L8.07884711,52.8348213 L4.35597807,52.8348213 Z M59.4740618,57.5984212 L66,57.5984212 L66,54.8125962 L64.5653706,54.8125962 L64.5653706,56.0759377 L62.5078153,56.0759377 L62.5078153,54.2026336 L64.0883358,54.2026336 L64.0883358,52.6154131 L62.5078153,52.6154131 L62.5078153,50.4771523 L64.5653706,50.4771523 L64.5653706,51.7685982 L66,51.7685982 L66,48.959902 L59.4740618,48.959902 L59.4740618,50.4771523 L60.1414406,50.4771523 L60.1414406,56.0759377 L59.4740618,56.0759377 L59.4740618,57.5984212 Z M51.2422737,48.959902 L51.2422737,50.4771523 L51.9288436,50.4771523 L51.9288436,56.0759377 L51.2422737,56.0759377 L51.2422737,57.5984212 L54.6719896,57.5984212 C57.2735527,57.5984212 59.0620416,56.1158653 59.0620416,53.16122 C59.0620416,50.3608582 57.3109556,48.959902 54.7507121,48.959902 L51.2422737,48.959902 Z M54.527665,50.5161108 C55.8606601,50.5161108 56.7015417,51.1995325 56.7015417,53.1241997 C56.7015417,55.322352 55.7889874,56.0344595 54.4714627,56.0344595 L54.2766147,56.0344595 L54.2766147,50.5161108 L54.527665,50.5161108 Z M47.8423236,48.959902 L43.6302784,48.959902 L43.6302784,50.2689859 L44.2663249,50.2689859 L42.458449,56.0759377 L41.8778217,56.0759377 L41.8778217,57.5984212 L45.1741793,57.5984212 L45.1741793,56.0759377 L44.6064765,56.0759377 L45.0151677,54.4610004 L47.3104572,54.4610004 L47.7730008,56.0759377 L47.1931567,56.0759377 L47.1931567,57.5984212 L50.6984619,57.5984212 L50.6984619,56.0759377 L50.1192053,56.0759377 L47.8423236,48.959902 Z M45.3831268,52.9255307 L46.0949583,50.4674611 L46.1515524,50.4674611 L46.890408,52.9255307 L45.3831268,52.9255307 Z M38.6186712,51.6220677 C38.6186712,52.3812743 38.1855017,52.860406 37.394556,52.860406 L36.8534857,52.860406 L36.8534857,50.4771523 L37.3800648,50.4771523 C38.2648116,50.4771523 38.6186712,50.8448355 38.6186712,51.6220677 L38.6186712,51.6220677 Z M33.9622944,57.5984212 L37.5345724,57.5984212 L37.5345724,56.0617886 L36.8534857,56.0617886 L36.8534857,54.425143 L37.394556,54.425143 C38.3474507,54.425143 38.5033291,54.8901256 38.5033291,55.7241481 L38.5033291,57.5984212 L41.345172,57.5984212 L41.345172,56.0759377 L40.705209,56.0759377 L40.705209,55.2707949 C40.705209,54.3313324 40.5078153,53.6810546 39.2772378,53.4201682 L39.2772378,53.3697741 C40.086787,53.2259571 40.9016236,52.6154131 40.9016236,51.3100119 C40.9016236,49.7512833 39.6751584,48.959902 37.4025849,48.959902 L33.9622944,48.959902 L33.9622944,50.4771523 L34.6367229,50.4771523 L34.6367229,56.0617886 L33.9622944,56.0617886 L33.9622944,57.5984212 Z M29.2839849,50.7919217 C30.2689952,50.7919217 31.1972157,51.639318 31.1972157,53.2767388 C31.1972157,54.9201682 30.2548957,55.8144698 29.2839849,55.8144698 C28.3068077,55.8144698 27.3711458,54.9399382 27.3711458,53.2912756 C27.3711458,51.639318 28.2921206,50.7919217 29.2839849,50.7919217 L29.2839849,50.7919217 Z M29.2839849,57.7934076 C32.2341202,57.7934076 33.5569323,55.5297431 33.5569323,53.2767388 C33.5569323,51.0223778 32.2341202,48.8114332 29.2839849,48.8114332 C26.3293456,48.8114332 25.0041836,51.0223778 25.0041836,53.2912756 C25.0041836,55.5576537 26.3293456,57.7934076 29.2839849,57.7934076 L29.2839849,57.7934076 Z M22.9258705,56.0759377 L22.0411237,56.0759377 L22.0411237,50.674077 L23.2801218,50.674077 L23.2801218,51.9756017 L24.6781315,51.9756017 L24.6781315,48.959902 L17.0165919,48.959902 L17.0165919,51.9756017 L18.4138183,51.9756017 L18.4138183,50.674077 L19.6334295,50.674077 L19.6334295,56.0759377 L18.7688528,56.0759377 L18.7688528,57.5984212 L22.9258705,57.5984212 L22.9258705,56.0759377 Z M14.69232,48.959902 L10.4847789,48.959902 L10.4847789,50.2689859 L11.1210211,50.2689859 L9.3113829,56.0759377 L8.7319305,56.0759377 L8.7319305,57.5984212 L12.0277006,57.5984212 L12.0277006,56.0759377 L11.4611728,56.0759377 L11.8708431,54.4610004 L14.1635868,54.4610004 L14.6280887,56.0759377 L14.0488322,56.0759377 L14.0488322,57.5984212 L17.5539415,57.5984212 L17.5539415,56.0759377 L16.9739016,56.0759377 L14.69232,48.959902 Z M12.2382148,52.9255307 L12.9541587,50.4674611 L13.0038987,50.4674611 L13.7433419,52.9255307 L12.2382148,52.9255307 Z" id="Fill-94" fill="#FEFEFE"></path>
                <path d="M66.5965542,49.1153172 C66.565207,49.1011242 66.526681,49.0924641 66.4793013,49.0924641 L66.3943527,49.0924641 L66.3943527,49.2942924 L66.4793013,49.2942924 C66.526681,49.2942924 66.5558746,49.2880379 66.5781287,49.2805806 C66.6056473,49.2659065 66.6286193,49.2363179 66.6286193,49.1966258 C66.6286193,49.1574148 66.6235942,49.1273451 66.5965542,49.1153172 L66.5965542,49.1153172 Z M66.4910266,49.0270323 C66.5582675,49.0270323 66.6056473,49.0361735 66.6389088,49.0479609 C66.6977746,49.0708139 66.7214645,49.1189255 66.7214645,49.1879657 C66.7214645,49.2363179 66.7025604,49.2707177 66.6748026,49.2942924 C66.651352,49.3084853 66.6286193,49.3176265 66.5965542,49.3248433 C66.6343623,49.3248433 66.6692989,49.3452907 66.6846135,49.3741577 C66.7025604,49.4085575 66.7130893,49.4321322 66.7130893,49.4595558 L66.7130893,49.4973234 C66.7130893,49.5134408 66.7130893,49.5297987 66.7214645,49.5437511 L66.7214645,49.5697314 L66.7264896,49.5757453 L66.6343623,49.5757453 L66.6343623,49.5697314 L66.6343623,49.5637174 L66.6286193,49.5500056 L66.6286193,49.5069457 C66.6286193,49.443679 66.6056473,49.3972512 66.5781287,49.3799311 C66.5582675,49.3683843 66.5187844,49.3628514 66.4668581,49.3628514 L66.3943527,49.3628514 L66.3943527,49.5757453 L66.2964824,49.5757453 L66.2964824,49.0270323 L66.4910266,49.0270323 Z M66.193587,48.998887 C66.1150993,49.0854879 66.0677196,49.185079 66.0677196,49.303193 C66.0677196,49.4203448 66.1150993,49.5297987 66.193587,49.6113479 C66.281407,49.6965055 66.3783202,49.7390843 66.4977267,49.7390843 C66.6235942,49.7390843 66.7214645,49.6965055 66.8052166,49.6113479 C66.88514,49.5297987 66.9301268,49.4203448 66.9301268,49.303193 C66.9301268,49.185079 66.88514,49.0854879 66.8052166,48.998887 C66.7214645,48.9149323 66.6173726,48.8749996 66.4977267,48.8749996 C66.3783202,48.8749996 66.281407,48.9149323 66.193587,48.998887 L66.193587,48.998887 Z M66.8518784,49.654889 C66.7537688,49.7597723 66.6389088,49.8062 66.4977267,49.8062 C66.3646805,49.8062 66.2450347,49.7597723 66.1481216,49.654889 C66.0504905,49.5637174 66,49.443679 66,49.303193 C66,49.1682399 66.0504905,49.0522909 66.1481216,48.9500537 C66.2450347,48.8569578 66.3646805,48.8062 66.4977267,48.8062 C66.6389088,48.8062 66.7537688,48.8569578 66.8518784,48.9500537 C66.9475951,49.0522909 67,49.1682399 67,49.303193 C67,49.443679 66.9475951,49.5637174 66.8518784,49.654889 L66.8518784,49.654889 Z" id="Fill-96" fill="#FEFEFE"></path>
                <path d="M42.4028986,20.9578306 L34.5553918,28.9848703 L41.8542373,28.9848703 L41.8542373,35.1473568 C40.1797593,35.8568233 39.0877426,36.1132263 37.3468435,36.1132263 C34.5219848,36.1132263 31.9653648,35.2223777 29.9809875,33.6724029 L25.304397,38.3203684 L27.9030705,31.6474265 C26.3307787,29.496501 25.2994842,26.4482631 25.2994842,23.3330351 C25.2994842,16.5276803 29.9342176,11.5167547 36.3139769,11.5167547 C37.9045443,11.5167547 39.358143,11.7461267 40.7708671,12.279108 L49.8222058,9.34349933 L46.6304593,13.3246995 L51.4762466,11.5919715 L48.324392,14.8147359 L47.9292066,15.2164796 L52.241071,15.2164796 L52.241071,0.8062 L45.4240727,0.8062 L45.4240727,2.93597069 C42.6996315,1.89410089 39.7067551,1.37208867 36.3809875,1.37208867 C22.7849177,1.37208867 13,10.8131645 13,24.0407388 C13,36.8793013 22.3999509,45.8062 35.9250798,45.8062 C42.3046426,45.8062 48.0392533,44.0721009 53,40.6722637 L52.9968558,20.9578306 L42.4028986,20.9578306 Z" id="Fill-98" fill="#FEFEFE"></path>
                <path d="M42.45665,12.0447144 L38.9754137,16.205078 L40.8164748,15.5703938 L42.4445107,15.0192767 L41.872006,15.5703938 L30.9041537,26.7594837 L30.2873992,27.373663 L33.2018088,20.1164815 L33.6376486,19.0237259 L34.1463242,17.7502952 L32.1231737,18.5112972 L34.7489814,14.5679758 L42.45665,12.0447144 Z M27,33.8062 L48,12.4151564 L43.7015151,13.9025343 L43.7201156,13.880095 L47.1361522,9.8062 L34.3348748,14.0093144 L29.2763135,21.6013446 L29.2909981,21.5959282 L32.3651764,20.4327596 C32.3651764,20.441658 27.6872407,32.08437 27,33.8062 L27,33.8062 Z" id="Fill-100" fill="#FEFEFE"></path>
                <g id="Group-104" transform="translate(52.040222, 0.000000)">
                    <mask id="mask-2" fill="white">
                        <use xlink:href="#path-1"></use>
                    </mask>
                    <g id="Clip-103"></g>
                    <path d="M1.53377778,1.38886 C1.38022222,1.53246 1.18466667,1.60646 0.95,1.60646 C0.728888889,1.60646 0.532222222,1.53246 0.373777778,1.38886 C0.214,1.24426 0.132888889,1.06846 0.132888889,0.85906 C0.132888889,0.65386 0.214,0.48026 0.373777778,0.33426 C0.532222222,0.19186 0.728888889,0.11866 0.95,0.11866 C1.18466667,0.11866 1.38022222,0.19186 1.53377778,0.33426 C1.69777778,0.48026 1.77844444,0.65386 1.77844444,0.85906 C1.77844444,1.06846 1.69777778,1.24426 1.53377778,1.38886 M1.62888889,0.25266 C1.44911111,0.08146 1.21622222,-0.00014 0.95,-0.00014 C0.690222222,-0.00014 0.462666667,0.08146 0.288,0.25266 C0.0897777778,0.41846 0,0.62126 0,0.85666 C0,1.09826 0.0897777778,1.30366 0.282888889,1.46926 C0.462666667,1.63786 0.690222222,1.71866 0.95,1.71866 C1.21622222,1.71866 1.44911111,1.63786 1.62888889,1.46926 C1.82088889,1.29866 1.91177778,1.09506 1.91177778,0.85666 C1.91177778,0.62126 1.82088889,0.41846 1.62888889,0.25266" id="Fill-102" fill="#FEFEFE" mask="url(#mask-2)"></path>
                </g>
                <path d="M53.6452231,1.27031988 C53.5932111,1.27897332 53.5201204,1.28551617 53.4226663,1.28551617 L53.2217356,1.28551617 L53.2217356,0.927348164 L53.4177388,0.927348164 C53.540104,0.927348164 53.632357,0.936423723 53.6914864,0.964494639 C53.7500684,0.990877079 53.7777169,1.03393322 53.7777169,1.11096995 C53.7777169,1.18927303 53.7361073,1.23992731 53.6452231,1.27031988 M53.972899,1.73844989 L53.972899,1.6654233 L53.972899,1.59324095 C53.972899,1.54153136 53.9520942,1.49108814 53.9055571,1.4360016 C53.8620312,1.38619156 53.7894881,1.35242203 53.683274,1.34503495 C53.7697783,1.33089396 53.8362989,1.31527556 53.8740761,1.29269219 C53.9589379,1.25280194 54,1.18462972 54,1.09345201 C54,0.970615365 53.9326581,0.886824736 53.794963,0.844612832 C53.7254312,0.822029464 53.6082672,0.8062 53.4440186,0.8062 L53,0.8062 L53,1.8062 L53.2217356,1.8062 L53.2217356,1.41025234 L53.4029565,1.41025234 C53.5201204,1.41025234 53.6082672,1.42376015 53.6569943,1.44634352 C53.7361073,1.48180152 53.7777169,1.55778295 53.7777169,1.67281038 L53.7777169,1.75322406 L53.7777169,1.78361663 C53.7777169,1.788471 53.7777169,1.79205901 53.7826444,1.79374749 C53.7826444,1.79923504 53.7826444,1.80155669 53.7894881,1.8062 L54,1.8062 L53.9915138,1.79205901 C53.9915138,1.78361663 53.9849439,1.76652081 53.972899,1.73844989" id="Fill-105" fill="#FEFEFE"></path>
            </g>
        </g>
    </g>
</svg>