<?xml version="1.0" encoding="utf-8"?>
<svg version="1.2" baseProfile="tiny" xmlns="http://www.w3.org/2000/svg" xmlns:xlink="http://www.w3.org/1999/xlink"
	 x="0px" y="0px" viewBox="0 0 26 26" xml:space="preserve">
<title>idiomas icon</title>
<path fill="#FFFFFF" d="M22.7,21.6c2-2.3,3.3-5.3,3.3-8.6c0-3.4-1.3-6.6-3.5-8.9l0,0c0,0,0,0,0,0c-2.3-2.4-5.5-4-9-4.1
	l0,0l-0.3,0c-0.1,0-0.1,0-0.2,0s-0.1,0-0.2,0l-0.3,0l0,0C9,0.1,5.8,1.7,3.5,4.1c0,0,0,0,0,0c0,0,0,0,0,0C1.3,6.4,0,9.6,0,13
	c0,3.3,1.2,6.3,3.3,8.6c0,0,0,0,0,0c0,0,0,0,0,0c2.3,2.6,5.6,4.2,9.2,4.3l0,0l0.3,0c0.1,0,0.1,0,0.2,0s0.1,0,0.2,0l0.3,0l0,0
	C17.1,25.9,20.4,24.2,22.7,21.6C22.7,21.6,22.7,21.6,22.7,21.6C22.7,21.6,22.7,21.6,22.7,21.6z M0.9,13.4h5.4
	c0.1,1.9,0.4,3.7,1.1,5.5c-1.3,0.5-2.5,1.1-3.6,1.9C2.1,18.8,1,16.2,0.9,13.4z M4,4.9c1.1,0.7,2.3,1.3,3.5,1.7
	c-0.8,1.8-1.2,3.8-1.2,5.9H0.9C1,9.6,2.2,7,4,4.9z M25.1,12.5h-5.4c-0.1-2-0.5-4-1.2-5.9c1.2-0.4,2.4-1,3.5-1.7
	C23.8,7,25,9.6,25.1,12.5z M12.6,6.7c-1.3,0-2.6-0.2-3.8-0.6c0.9-1.9,2.2-3.5,3.8-4.9V6.7z M12.6,7.6v4.9H7.2
	C7.2,10.6,7.6,8.7,8.4,7C9.7,7.3,11.1,7.6,12.6,7.6z M13.4,7.6c1.4,0,2.8-0.3,4.2-0.6c0.7,1.8,1.1,3.6,1.2,5.6h-5.4
	C13.4,12.5,13.4,7.6,13.4,7.6z M13.4,6.7V1.2c1.6,1.4,2.9,3.1,3.8,4.9C16,6.5,14.7,6.7,13.4,6.7z M18.1,5.9
	c-0.9-1.8-2.1-3.4-3.5-4.9c2.6,0.3,5,1.5,6.8,3.3C20.4,4.9,19.3,5.5,18.1,5.9z M7.9,5.9C6.7,5.5,5.6,4.9,4.6,4.3
	C6.4,2.5,8.8,1.3,11.4,1C9.9,2.4,8.7,4.1,7.9,5.9z M7.2,13.4h5.4v4.5c-1.5,0-2.9,0.3-4.3,0.7C7.6,17,7.2,15.2,7.2,13.4z M12.6,18.8
	v6c-1.7-1.5-3.1-3.3-4-5.3C9.9,19.1,11.2,18.9,12.6,18.8z M13.4,24.8v-6c1.4,0,2.7,0.2,4,0.6C16.5,21.5,15.2,23.3,13.4,24.8z
	 M13.4,17.9v-4.5h5.4c-0.1,1.8-0.4,3.6-1,5.2C16.4,18.2,14.9,18,13.4,17.9z M19.7,13.4h5.4c-0.1,2.8-1.1,5.3-2.8,7.3
	c-1.1-0.8-2.4-1.4-3.6-1.9C19.3,17.2,19.7,15.3,19.7,13.4z M4.3,21.4c1.1-0.7,2.2-1.3,3.4-1.7c0.9,2,2.1,3.7,3.7,5.2
	C8.7,24.6,6.2,23.3,4.3,21.4z M14.6,25c1.6-1.5,2.8-3.3,3.7-5.2c1.2,0.4,2.3,1,3.4,1.7C19.8,23.3,17.3,24.6,14.6,25z"/>
</svg>
