<?xml version="1.0" encoding="UTF-8"?>
<svg width="125px" height="34px" viewBox="0 0 125 34" version="1.1" xmlns="http://www.w3.org/2000/svg" xmlns:xlink="http://www.w3.org/1999/xlink">
    <title>6A64691F-7142-4A91-A245-FDD640F7894D</title>
    <g id="Page-1" stroke="none" stroke-width="1" fill="none" fill-rule="evenodd" opacity="1">
        <g id="Footer-con-sponsors-Siempre-desplegados/1440" transform="translate(-722.000000, -708.000000)" fill="#FFFFFF" fill-rule="nonzero">
            <g id="Group-12" transform="translate(261.000000, 652.000000)">
                <g id="Group-8" transform="translate(421.000000, 0.000000)">
                    <g id="Logo-Avalian-03" transform="translate(40.000000, 56.000000)">
                        <path d="M19.7026604,1.12992924 C19.2738518,0.42708114 18.5211619,0 17.7112676,0 C16.9013733,0 16.1486835,0.42708114 15.7198748,1.12992924 L0,26 L0,26 C8.05471475,18.3441774 19.2307288,15.144537 30,17.4111407 L19.7026604,1.12992924 Z" id="Path"></path>
                        <path d="M0.573496708,27.0616511 L0.431057984,27.2644003 C-0.178980461,28.1206324 -0.137965043,29.271908 0.531504734,30.0838739 C1.20097451,30.8958399 2.33612398,31.1710751 3.31148551,30.7579249 C8.05944298,28.9331821 13.155584,27.2955925 18.5286892,27.2955925 C23.9017944,27.2955925 28.9741956,28.9565763 33.658847,30.7969151 C34.6332988,31.2252933 35.7780521,30.9603742 36.4571389,30.1493337 C37.1362257,29.3382932 37.1827755,28.1804264 36.5709276,27.3189866 L30.9050316,18.6865499 C20.0156282,16.4964491 8.72269989,19.6146367 0.573496708,27.0616511" id="Path"></path>
                        <path d="M48.96375,20.5518717 C49.9271894,20.6131598 50.8729059,20.2908627 51.5611983,19.6666698 C52.2494907,19.0424769 52.6142867,18.1763074 52.563125,17.2877005 L52.563125,16.7486631 L49.313125,16.7486631 C47.428125,16.7486631 46.485625,17.3925134 46.485625,18.6652406 C46.485625,19.9379679 47.40375,20.5518717 48.923125,20.5518717 M48.59,14.6823529 L52.5225,14.6823529 L52.5225,13.768984 C52.5225,12.2117647 51.555625,11.4181818 49.64625,11.4181818 C48.02125,11.4181818 46.956875,12.1219251 46.810625,13.2149733 C46.7976869,13.370324 46.6546488,13.4889438 46.485625,13.484492 L43.853125,13.484492 C43.7577778,13.4854869 43.6667668,13.4478494 43.604198,13.3815487 C43.5416292,13.3152479 43.5138159,13.2269735 43.528125,13.140107 C43.91,10.5197861 46.323125,9 49.93875,9 C53.92,9 56,10.8566845 56,14.0459893 L56,22.4459893 C56,22.5267267 55.9646733,22.6040538 55.9019553,22.6604347 C55.8392372,22.7168156 55.7544694,22.747473 55.666875,22.7454545 L53.229375,22.7454545 C53.0628651,22.7471051 52.9206091,22.6352082 52.89625,22.4834225 L52.628125,20.5069519 L52.40875,20.5069519 C51.7425,22.1390374 49.97125,23 47.818125,23 C44.909375,23 43,21.397861 43,18.9197861 C43,16.1946524 45.16125,14.659893 48.614375,14.659893" id="Shape"></path>
                        <path d="M56.3575506,9 L59.3524219,9 C59.4935299,9.00405222 59.6162731,9.09453999 59.6575295,9.22495649 L61.6407285,15.4997009 L62.9815959,19.9905254 L63.1421788,19.9905254 L64.4268421,15.5229694 L66.3859537,9.22495649 C66.4281249,9.09185901 66.5550012,9.00072256 66.6990904,9 L69.6698743,9 C69.7759072,8.99973863 69.8755926,9.04880491 69.9376741,9.13184149 C69.9997556,9.21487806 70.0166318,9.32171776 69.983011,9.41886083 L65.1655235,22.7905041 C65.1207877,22.9162585 64.9980671,23.0004902 64.860416,23 L61.1670089,23 C61.0285579,23.0029694 60.9044768,22.9178038 60.8619014,22.7905041 L56.0203264,9.41886083 C55.9832075,9.32291979 55.9974983,9.21546388 56.0585164,9.13170196 C56.1195344,9.04794003 56.219416,8.99866695 56.325434,9" id="Path"></path>
                        <path d="M75.9409918,20.5518717 C76.9086648,20.6131598 77.858537,20.2908627 78.5498539,19.6666698 C79.2411708,19.0424769 79.6075698,18.1763074 79.5561833,17.2877005 L79.5561833,16.7486631 L76.2919021,16.7486631 C74.4067797,16.7486631 73.4601381,17.3925134 73.4601381,18.6652406 C73.4601381,19.9379679 74.3741368,20.5518717 75.908349,20.5518717 M75.5737602,14.6823529 L79.5235405,14.6823529 L79.5235405,13.768984 C79.5235405,12.2117647 78.5524168,11.4181818 76.6346516,11.4181818 C75.002511,11.4181818 73.9334589,12.1219251 73.7865662,13.2149733 C73.7662403,13.3669194 73.6269835,13.4818981 73.4601381,13.484492 L70.7997489,13.484492 C70.7048922,13.4830203 70.6151757,13.4446756 70.5529238,13.3789993 C70.4906719,13.3133229 70.4617377,13.2264898 70.4733208,13.140107 C70.8650345,10.5197861 73.2887633,9 76.9121155,9 C80.9190207,9 83,10.8566845 83,14.0459893 L83,22.4459893 C83,22.6113794 82.8538532,22.7454545 82.6735719,22.7454545 L80.225361,22.7454545 C80.0612167,22.7434006 79.9229409,22.6324031 79.8989328,22.4834225 L79.6296296,20.5069519 L79.4500942,20.5069519 C78.7809165,22.1390374 77.0018832,23 74.8311362,23 C71.9177652,23 70,21.397861 70,18.9197861 C70,16.1946524 72.1625863,14.659893 75.6390458,14.659893" id="Shape"></path>
                        <path d="M85,22.6762444 L85,3.32375558 C85.0038778,3.14364866 85.1338655,3 85.2928571,3 L87.7071429,3 C87.8661345,3 87.9961222,3.14364866 88,3.32375558 L88,22.6762444 C87.9961222,22.8563513 87.8661345,23 87.7071429,23 L85.2928571,23 C85.1338655,23 85.0038778,22.8563513 85,22.6762444" id="Path"></path>
                        <path d="M92.0283688,22.6891412 L92.0283688,9.31085875 C92.0283688,9.22843968 92.0582573,9.14939627 92.1114591,9.09111719 C92.1646609,9.0328381 92.236818,9 92.3120567,9 L94.7092198,9 C94.7856797,8.99800267 94.8596724,9.0298165 94.9144181,9.08832415 C94.9691638,9.1468318 95,9.22707578 95,9.31085875 L95,22.6891412 C95,22.7729242 94.9691638,22.8531682 94.9144181,22.9116758 C94.8596724,22.9701835 94.7856797,23.0019973 94.7092198,23 L92.2836879,23 C92.1270114,23 92,22.8607701 92,22.6891412" id="Path"></path>
                        <path d="M101.991234,20.5518717 C102.957176,20.6156445 103.906267,20.2941596 104.596481,19.669398 C105.286694,19.0446363 105.651318,18.1769849 105.59737,17.2877005 L105.59737,16.7486631 L102.341265,16.7486631 C100.452724,16.7486631 99.5084533,17.3925134 99.5084533,18.6652406 C99.5084533,19.9379679 100.428303,20.5518717 101.950532,20.5518717 M101.624922,14.6823529 L105.556669,14.6823529 L105.556669,13.768984 C105.556669,12.2117647 104.587977,11.4181818 102.675016,11.4181818 C101.046963,11.4181818 99.9805886,12.1219251 99.8340639,13.2149733 C99.8211015,13.370324 99.6777947,13.4889438 99.5084533,13.484492 L96.8303068,13.484492 C96.7347806,13.4854869 96.6435985,13.4478494 96.5809122,13.3815487 C96.5182259,13.3152479 96.4903603,13.2269735 96.5046963,13.140107 C96.8872887,10.5197861 99.3049468,9 102.927364,9 C106.916093,9 109,10.8566845 109,14.0459893 L109,22.4459893 C109,22.5267267 108.964607,22.6040538 108.901771,22.6604347 C108.838935,22.7168156 108.754008,22.747473 108.666249,22.7454545 L106.22417,22.7454545 C106.057703,22.7501823 105.915562,22.6357956 105.89856,22.4834225 L105.629931,20.5069519 L105.426425,20.5069519 C104.767063,22.1390374 102.984346,23 100.827176,23 C97.9129618,23 96,21.397861 96,18.9197861 C96,16.1946524 98.16531,14.659893 101.633062,14.659893" id="Shape"></path>
                        <path d="M112,22.6949542 L112,9.56684235 C112,9.48596449 112.032688,9.40839918 112.090874,9.3512099 C112.149059,9.29402062 112.227976,9.26189201 112.310263,9.26189201 L114.637232,9.26189201 C114.791942,9.26017295 114.924296,9.37074768 114.947494,9.5210998 L115.304296,11.8082273 L115.513723,11.8082273 C116.353988,10.0418818 118.184896,8.9381518 120.167661,9.00268423 C123.309069,9.00268423 125,11.1830791 125,14.690008 L125,22.6949542 C125,22.7758321 124.967312,22.8533974 124.909126,22.9105867 C124.850941,22.967776 124.772024,23 124.689737,23 L122.013723,23 C121.841071,23 121.699915,22.8645997 121.695704,22.6949542 L121.695704,15.0254533 C121.695704,12.8221872 120.749403,11.724366 118.818019,11.724366 C116.677208,11.724366 115.304296,13.363474 115.304296,15.7802054 L115.304296,22.6949542 C115.304322,22.7771705 115.270571,22.8559139 115.210697,22.9133275 C115.150823,22.9707411 115.069899,23.00196 114.986277,23 L112.310263,23 C112.138909,23 112,22.8633737 112,22.6949542" id="Path"></path>
                        <path d="M93.5,4 L93.5,4 C92.6715729,4 92,4.67157288 92,5.5 C92,6.32842712 92.6715729,7 93.5,7 C94.3284271,7 95,6.32842712 95,5.5 C95,5.10217527 94.8419647,4.7206444 94.5606602,4.43933983 C94.2793556,4.15803526 93.8978247,4 93.5,4" id="Path"></path>
                        <path d="M61,32.9710076 C60.9647729,33.2675546 60.7964785,33.5381272 60.534326,33.7196875 C60.2534795,33.9089364 59.9096026,34.0062193 59.559321,33.9955169 C59.139838,34.0268622 58.7258665,33.892733 58.4242405,33.6277444 C58.1312137,33.3280472 57.9797429,32.9367576 58.0022235,32.5375614 C57.9793432,32.1371436 58.1337839,31.7449439 58.4315167,31.4473785 C58.7156953,31.1551975 59.1286861,30.991664 59.559321,31.0007975 C59.9096026,30.9900951 60.2534795,31.0873781 60.534326,31.2766269 C60.79286,31.4581465 60.9604748,31.7252626 61,32.0187394 L60.3888028,32.0187394 C60.2999221,31.67308 59.9438988,31.4383605 59.5520448,31.4670806 C59.2888647,31.457666 59.0359021,31.5596817 58.8680861,31.74291 C58.6892888,31.963142 58.5994172,32.2319867 58.6134206,32.5047246 C58.6134206,33.1614613 58.9699523,33.5358012 59.5447687,33.5358012 C59.9437445,33.5668658 60.3057843,33.3246033 60.3888028,32.9710076 L61,32.9710076 Z" id="Path"></path>
                        <path d="M63.4789703,33.5300747 C64.053347,33.5300747 64.3937184,33.127086 64.3937184,32.5096035 C64.4085313,32.2395395 64.3208306,31.97311 64.1455309,31.7556248 C63.9813105,31.5750945 63.735244,31.474317 63.4789703,31.4826325 C63.2222708,31.4722909 62.9752675,31.573452 62.8124097,31.7556248 C62.6381528,31.9711116 62.5504769,32.2351696 62.5642222,32.5031037 C62.5642222,33.1530853 62.9258668,33.5300747 63.4789703,33.5300747 M62.4082187,31.4176343 C62.6838485,31.1450426 63.0735879,30.9936284 63.4789703,31.0016461 C63.8954522,30.9824309 64.3000532,31.1322034 64.5851773,31.4111345 C64.8716708,31.7046677 65.0195636,32.0903168 64.9964593,32.4836042 C65.0255124,32.8925241 64.8748581,33.2950993 64.5780862,33.6015726 C64.2920443,33.8739477 63.890811,34.0186863 63.4789703,33.9980614 C63.0768523,34.0111123 62.6876138,33.8669811 62.4082187,33.6015726 C62.1278109,33.302583 61.983151,32.9164199 62.0040277,32.5226031 C61.9733585,32.1196985 62.1187769,31.7221569 62.4082187,31.4176343" id="Shape"></path>
                        <path d="M65.655288,33.5995475 L66.6466211,33.5995475 C67.0414741,33.5995475 67.2851069,33.4366516 67.2851069,33.1447964 C67.2851069,32.8529412 67.0246719,32.6900452 66.6466211,32.6900452 L65.655288,32.6900452 L65.655288,33.5995475 Z M65.655288,32.2420814 L66.6298189,32.2420814 C66.8159078,32.2420814 66.987861,32.1618747 67.0809055,32.0316742 C67.17395,31.9014738 67.17395,31.7410602 67.0809055,31.6108597 C66.987861,31.4806593 66.8159078,31.4004525 66.6298189,31.4004525 L65.655288,31.4004525 L65.655288,32.2420814 Z M65,34 L65,31 L66.7894403,31 C67.4699317,31 67.8983892,31.3054299 67.8983892,31.7669683 C67.9227822,32.06399 67.7047757,32.3391915 67.360717,32.4457014 L67.360717,32.4864253 C67.7448025,32.562997 68.0107237,32.8456806 67.9992027,33.1651584 C68.0112262,33.3980411 67.8867025,33.6218839 67.6631576,33.7692308 C67.4247454,33.92185 67.1270647,34.0012144 66.8230448,33.9932127 L65,34 Z" id="Shape"></path>
                        <polygon id="Path" points="68 34 68 31 71 31 71 31.470852 68.771987 31.470852 68.771987 32.2309417 70.7068404 32.2309417 70.7068404 32.6748879 68.771987 32.6748879 68.771987 33.529148 71 33.529148 71 34"></polygon>
                        <path d="M72.6832304,32.4369752 L73.5372685,32.4369752 C73.9899086,32.4369752 74.2546604,32.2424356 74.2546604,31.9472721 C74.2546604,31.6521086 74.0326105,31.4776938 73.5970511,31.4776938 L72.6832304,31.4776938 L72.6832304,32.4369752 Z M72,34 L72,31.0081155 L73.7934799,31.0081155 C74.1092372,30.9732287 74.4281992,31.0519528 74.661803,31.2224294 C74.8954068,31.392906 75.0187824,31.6369858 74.9976735,31.8868977 C75.0052042,32.2048633 74.7697433,32.4954972 74.3998469,32.6248065 L74.3998469,32.6248065 C74.7411778,32.6788566 74.9719302,32.9302684 74.9293504,33.2017169 L74.9293504,33.6377539 C74.9248607,33.7536145 74.9450669,33.8692494 74.9891331,33.9798752 L74.3059027,33.9798752 C74.258006,33.8630026 74.2377447,33.7402314 74.24612,33.6176291 L74.24612,33.3090491 C74.24612,33.0138856 74.1094739,32.8864286 73.6995357,32.8864286 L72.6832304,32.8864286 L72.6832304,33.9798752 L72,34 Z" id="Shape"></path>
                        <polygon id="Path" points="78 31 78 31.4775785 76.8495575 31.4775785 76.8495575 34 76.1415929 34 76.1415929 31.4775785 75 31.4775785 75 31"></polygon>
                        <path d="M78.0026242,31 L78.6435337,31 L78.6435337,32.7997937 C78.6435337,33.1908152 79.0273226,33.5078008 79.5007501,33.5078008 C79.9741777,33.5078008 80.3579665,33.1908152 80.3579665,32.7997937 L80.3579665,31 L80.998876,31 L80.998876,32.839495 C81.0145355,33.1569349 80.8659751,33.4648918 80.5902962,33.6864568 C80.2855587,33.9008778 79.8923993,34.0099095 79.4927387,33.9908336 C79.1011378,34.0329933 78.7072249,33.9283342 78.4188308,33.7055061 C78.1304366,33.4826781 77.9777707,33.1650224 78.0026242,32.839495 L78.0026242,31 Z" id="Path"></path>
                        <path d="M82.6766338,32.4364934 L83.5331322,32.4364934 C83.7132158,32.456011 83.8952247,32.4131537 84.0317359,32.3190883 C84.1682471,32.2250228 84.2457409,32.0890651 84.2440259,31.9466395 C84.2440259,31.631254 84.0299013,31.4769165 83.5845221,31.4769165 L82.6509388,31.4769165 L82.6766338,32.4364934 Z M82,34 L82,31.0071935 L83.7986467,31.0071935 C84.1139494,30.9745129 84.4313504,31.0542607 84.6635865,31.2245119 C84.8958225,31.3947631 85.0184462,31.6375953 84.9977445,31.8862465 C85.009087,32.2032179 84.7759406,32.4944166 84.4067606,32.6243826 L84.4067606,32.6243826 C84.7490749,32.6784494 84.9804921,32.9299388 84.9377897,33.2014709 L84.9377897,33.6376423 C84.933287,33.7535386 84.9535514,33.8692091 84.9977445,33.979869 L84.2954158,33.979869 C84.2475037,33.869753 84.2243205,33.753963 84.2268959,33.6376423 L84.2268959,33.3289671 C84.2268959,33.0337127 84.0898562,32.9062164 83.6787369,32.9062164 L82.6680688,32.9062164 L82.6680688,34 L82,34 Z" id="Shape"></path>
                        <path d="M86.9548694,32.9775785 L87.9738717,32.9775785 L87.824228,32.5605381 L87.4893112,31.558296 L87.4893112,31.558296 L87.1401425,32.5605381 L86.9548694,32.9775785 Z M88.3800475,34 L88.152019,33.4013453 L86.8194774,33.4013453 L86.5914489,34 L86,34 L87.1543943,31 L87.8171021,31 L89,34 L88.3800475,34 Z" id="Shape"></path>
                        <polygon id="Path" points="92 34 92 31 92.6821192 31 93.4834437 32.8901345 93.5165563 32.8901345 94.3178808 31 95 31 95 34 94.4768212 34 94.4768212 32.5874439 94.5165563 31.7331839 94.4900662 31.7331839 93.5033113 33.9529148 92.5165563 31.7331839 92.4834437 31.7331839 92.5231788 32.5874439 92.5231788 34"></polygon>
                        <path d="M96.4462541,30.0666667 L96.2117264,29.7583333 L97.3941368,29 L97.7068404,29.4583333 L96.4462541,30.0666667 Z M95,34 L95,30.2833333 L98,30.2833333 L98,30.875 L95.781759,30.875 L95.781759,31.8083333 L97.7361564,31.8083333 L97.7361564,32.3583333 L95.781759,32.3583333 L95.781759,33.4166667 L98,33.4166667 L98,34 L95,34 Z" id="Shape"></path>
                        <path d="M98.628475,33.5278828 L99.3276535,33.5278828 C99.9639844,33.5278828 100.333213,33.1853494 100.333213,32.4935662 C100.333213,31.801783 99.9639844,31.4793986 99.3276535,31.4793986 L98.628475,31.4793986 L98.628475,33.5278828 Z M98,33.9980267 L98,31.0025383 L99.4140688,31.0025383 C99.8548434,30.978236 100.284012,31.1294635 100.576748,31.4122351 C101.141084,32.0598571 101.141084,32.9474243 100.576748,33.5950462 C100.279139,33.8712164 99.8526048,34.0190518 99.4140688,33.9980267 L98,33.9980267 Z" id="Shape"></path>
                        <rect id="Rectangle" x="102" y="31" width="1" height="3"></rect>
                        <path d="M106,32.9750959 C105.964767,33.2711867 105.796442,33.541343 105.534242,33.7226241 C105.253888,33.9125361 104.909565,34.0097777 104.559062,33.9980292 C104.132774,34.0190953 103.717717,33.8704615 103.423777,33.5914788 C103.134026,33.2904955 102.983011,32.9010542 103.001684,32.5029729 C102.981968,32.103593 103.136021,31.713049 103.431054,31.4144671 C103.721995,31.1348602 104.134128,30.9839259 104.559062,31.0013594 C104.909565,30.9896109 105.253888,31.0868525 105.534242,31.2767645 C105.792823,31.4580048 105.960468,31.72471 106,32.0177354 L105.417803,32.0177354 C105.326179,31.6742382 104.971924,31.4410856 104.580894,31.4669252 C104.31558,31.4574843 104.060341,31.5591596 103.889535,31.7423303 C103.713288,31.963073 103.625993,32.23143 103.642101,32.5029729 C103.642101,33.1586993 103.991419,33.5324634 104.566339,33.5324634 C104.96397,33.561611 105.32567,33.3248428 105.417803,32.9750959 L106,32.9750959 Z" id="Path"></path>
                        <path d="M107.954869,32.9775785 L109.002375,32.9775785 L108.845606,32.5605381 L108.510689,31.558296 L108.510689,31.558296 L108.16152,32.5605381 L107.954869,32.9775785 Z M109.380048,34 L109.159145,33.4013453 L107.819477,33.4013453 L107.591449,34 L107,34 L108.154394,31 L108.817102,31 L110,34 L109.380048,34 Z" id="Shape"></path>
                    </g>
                </g>
            </g>
        </g>
    </g>
</svg>