<?xml version="1.0" encoding="utf-8"?>
<svg version="1.2" baseProfile="tiny" xmlns="http://www.w3.org/2000/svg" xmlns:xlink="http://www.w3.org/1999/xlink"
	 x="0px" y="0px" viewBox="0 0 26 26" xml:space="preserve">
<title>lupa ico</title>
<path fill="#FFFFFF" d="M25.7,24.2l-6.9-6.8c1.7-1.9,2.7-4.4,2.7-7c0-2.8-1.1-5.5-3.1-7.5s-4.8-3-7.7-3S5.2,1.1,3.1,3.1
	C-1,7.2-1,13.8,3.1,17.9c2,2,4.7,3.1,7.6,3.1c2.4,0,4.7-0.8,6.6-2.2l7,6.9c0.2,0.2,0.4,0.3,0.7,0.3s0.5-0.1,0.7-0.3
	C26.1,25.2,26.1,24.6,25.7,24.2z M4.5,16.5c-3.4-3.3-3.4-8.8,0-12.1C6.2,2.9,8.4,2,10.7,2s4.5,0.9,6.2,2.5c1.6,1.6,2.6,3.8,2.6,6.1
	s-0.9,4.4-2.6,6.1c-0.1,0.1-0.1,0.1-0.2,0.2c0,0,0,0-0.1,0l0,0c-1.6,1.5-3.7,2.3-5.9,2.3C8.4,19,6.2,18.1,4.5,16.5z"/>
</svg>
