<?xml version="1.0" encoding="UTF-8"?>
<svg width="77px" height="41px" viewBox="0 0 77 41" version="1.1" xmlns="http://www.w3.org/2000/svg" xmlns:xlink="http://www.w3.org/1999/xlink">
    <title>60CFE651-B530-4773-896C-B1F2EFC00FB3</title>
    <g id="Page-1" stroke="none" stroke-width="1" fill="none" fill-rule="evenodd" opacity="0.75">
        <g id="Footer-con-sponsors-Siempre-desplegados/375" transform="translate(-69.000000, -638.000000)" fill="#FFFFFF">
            <g id="Group" transform="translate(69.000000, 638.000000)">
                <path d="M74.85151,5.00391514 C74.85151,5.00391514 76.0724247,2.57705483 75.8211672,1.60249897 C75.5331094,0.462340677 74.5636108,0.961870626 74.5636108,0.961870626 C73.075735,1.77979286 74.6552944,4.90029351 74.6552944,4.90029351 C74.6830533,4.95586802 74.7273088,5.04043096 74.7701368,5.14469322 C74.825496,5.05500525 74.85151,5.00391514 74.85151,5.00391514 M74.158807,14.0673648 C74.0731511,13.0354727 74.158807,12.5929586 72.7694356,9.81022927 C72.2345617,10.7261676 71.643377,11.7268291 71.0320472,12.7230062 C71.5651762,13.0618986 71.9250899,13.6759408 71.9606213,14.4467769 C72.0156631,15.7959402 71.0609164,17.0980173 69.8185877,17.3600343 C69.2348582,17.4846365 68.6985567,17.3568311 68.27567,17.0482084 C68.64637,17.8249703 69.4049011,18.7093577 70.9278324,18.4031374 C73.2702057,17.9377209 74.2922083,15.659166 74.158807,14.0673648 M63.5858475,13.1762507 C63.5753784,13.1762507 63.9168919,13.140856 64.4850765,13.024582 C65.2347248,12.8653858 65.6387354,12.0098267 65.7126533,11.3307606 C65.7126533,11.3307606 66.7129246,4.56636599 66.7679665,3.71529124 C66.7743114,3.60254065 66.7743114,3.48194236 66.7619388,3.37047303 C66.7251385,3.011561 66.5428816,2.67827411 66.1980371,2.64191845 C66.0327528,2.6249418 65.8671513,2.67827411 65.701867,2.74682134 C65.5792521,2.79967318 65.4780511,2.86838057 65.3833537,2.95822869 C65.1700069,3.16002662 65.0293091,3.44606718 64.9342944,3.73851401 C64.8440384,4.01878891 64.7886793,4.29554036 64.7471203,4.57853792 C64.7471203,4.57853792 63.9476646,10.3184077 63.5858475,13.1762507 M71.0793166,19.1235239 C69.2394582,19.4414358 68.3311878,18.5407123 67.8879975,17.4968084 C67.1879979,18.4433368 66.5598542,19.1907899 66.0633669,19.5958272 L66.0633669,19.6007921 C64.4822213,20.8181461 62.5180032,21.0361198 61.6064016,20.471406 C59.210414,18.9990819 59.5919003,14.6288755 59.5919003,14.6288755 C59.5919003,14.6288755 57.8453118,19.2819193 56.2548075,21.365563 C54.3844937,23.8299 52.8507761,22.429967 53.2138622,20.1358769 C53.7423912,16.7866719 54.9449057,8.71171182 54.9449057,8.71171182 C55.2375636,7.01789049 54.4761773,7.03262494 53.8218609,8.260229 C53.2152898,9.39494195 53.0344605,9.82111995 52.7510028,11.4142025 L51.0504147,23.0350404 L47.4745955,23.8025132 L49.5519112,9.43049682 C49.7558993,8.25077973 48.9667541,8.3065144 48.2529544,9.40343028 C47.6907975,10.2618723 47.4393814,11.5844495 47.4393814,11.5844495 C47.4393814,11.5844495 45.7080206,23.8654549 45.6115783,24.194898 L41.9957863,24.9731013 L43.1708592,16.9011842 C42.2119883,19.7953829 40.8313411,22.8114611 39.3791553,24.8693195 C37.7916648,27.1185656 36.1370771,26.4241245 36.3485205,24.5088059 L37.0870652,18.4141882 C36.5447361,20.148209 34.6277874,24.3528129 33.1419737,26.3730344 C31.5576556,28.5370769 30.1341804,27.5408999 30.3105682,25.7541874 L31.1392104,19.546659 C29.6548243,23.2730339 28.3066946,25.9785675 27.1560495,27.6901663 C25.8079198,29.6882861 24.0951178,28.9504424 24.3032301,26.9854751 L24.7231029,22.9251727 C24.2234432,24.4703682 22.5858281,27.4838839 21.7660688,28.7041208 C20.4929674,30.6123924 18.3525201,30.9067612 18.9057941,27.1728589 L21.0736831,11.906205 L24.6495023,11.1403339 C24.5146734,11.6959188 23.0881844,22.2642044 22.8813411,23.449527 C22.6746565,24.6266815 23.3457868,24.2613632 23.7486871,23.6133677 C23.7486871,23.6133677 24.6953441,22.0138789 25.3315775,19.1688484 L26.5110918,10.7384997 L30.0913524,9.97102699 C30.0502693,10.0977112 28.8612376,19.3823378 28.4645236,21.6008337 C28.0876374,23.7232354 29.0160529,23.1107947 29.5539406,22.0262109 C30.1341804,20.8567439 31.001685,18.1372766 31.4642272,16.6002491 C31.9239142,15.0601785 32.5856858,9.43738358 32.5856858,9.43738358 L36.1584911,8.66862957 C35.9211924,10.4628694 34.5085035,20.5265 34.5085035,20.5303438 C34.2342458,22.0849886 34.8917346,21.939566 35.4354914,20.9912759 C36.9078222,18.189648 37.6861811,14.4467769 37.9098383,13.3479391 C38.1334956,12.2526248 39.5136669,2.04933723 39.5136669,2.04933723 L43.0085888,1.29916145 C42.8599598,2.16529096 40.5478833,18.8273935 40.5478833,18.8273935 C40.1941559,21.2481678 41.2694555,20.4052611 41.8457298,18.9322964 C42.1428291,18.1613002 43.4559033,14.5268554 43.5599594,14.2267211 L44.6357348,6.85100681 L48.1317671,6.10195212 L47.6430522,9.27033974 C47.6430522,9.27033974 48.4721702,7.76214047 49.4986141,6.57713819 C51.2647132,4.54298305 52.9518184,4.19416092 53.1218613,6.71022873 C53.1218613,6.71022873 53.1816619,7.91461001 53.1250338,8.23284214 C53.1250338,8.23284214 53.8846753,6.8044011 54.5420055,5.9691819 C56.9368827,2.66962563 59.0939854,3.29439842 58.8533556,6.18443302 C58.8533556,6.18443302 57.5326675,15.0649832 57.4498668,15.6498769 C57.3045689,16.7078746 57.7485523,17.2307875 58.2634398,16.3584119 C58.2634398,16.3584119 59.2672008,14.5210898 59.534955,13.0216991 C60.2782584,8.54322657 61.9634601,2.65264897 66.2286512,1.83088297 C70.4971733,1.00991775 70.2276742,7.06817982 69.5398886,8.9316075 C68.8749445,10.7431443 67.6029535,13.3942245 63.4970191,13.7979805 C63.4970191,13.7979805 63.380749,14.6101371 63.380749,14.6999852 C63.380749,14.6999852 63.1477331,16.7097965 63.22752,17.4788708 C63.3149208,18.2332107 64.0027065,20.0522749 65.8627099,18.9942772 C66.2900379,18.7452329 66.9383267,17.9840063 67.6890853,16.9336961 C67.5618704,16.4682796 67.5034974,16.0100702 67.4806558,15.6562832 C67.4684419,15.5702788 67.4590832,15.4890792 67.4576556,15.4030748 C67.4528969,15.2834375 67.4576556,15.1654017 67.4684419,15.0497683 L67.4684419,14.9645647 L67.4714557,14.9736937 C67.610726,13.7904532 68.4978997,12.7167601 69.608572,12.4850128 C69.9394578,12.4151843 70.2628884,12.4276765 70.5523738,12.5080754 C71.2265179,11.3927414 71.8867033,10.2618723 72.4828054,9.2286989 C71.0701165,6.22751527 71.4119472,3.7325882 71.4119472,3.7325882 C71.7444193,0.462340677 74.3518502,0.0654714194 74.3518502,0.0654714194 C74.3518502,0.0654714194 76.1996397,-0.454878951 76.5795397,1.43833795 C76.812397,2.58298064 75.9023817,4.37593921 75.1560645,5.59713699 C75.1379816,5.63509422 75.1057813,5.6922703 75.0599395,5.77122774 C75.7201249,7.24851669 76.8690251,10.1103636 76.9902125,12.1741479 C77.1650141,15.2307458 74.9907802,18.4468603 71.0793166,19.1235239 M9.46349326,14.3184911 C9.50013498,15.1625189 9.95696678,15.6638106 10.4821647,15.4424735 C11.0029213,15.2211364 11.4032836,14.3518037 11.3677522,13.5101783 C11.3341243,12.6563808 10.879196,12.1509251 10.350667,12.3733833 C9.82499315,12.6084939 9.42986537,13.4747835 9.46349326,14.3184911 M9.35927851,33.7639636 C10.7120082,33.9359723 12.7388821,34.2189699 14.1974128,32.4274527 C13.9663003,35.7487903 12.0236548,38.0366343 9.00840631,37.9501495 C5.98998537,37.8586998 4.14885805,37.9424619 2.89066714,39.6223496 L2.6225957,40 C2.8846395,36.8673274 3.79148234,34.8874655 6.29358817,34.118231 C4.06907111,33.6952562 -1.63958153,29.9214748 0.453279148,18.5283802 C1.79252598,11.2132053 5.59485759,7.08307442 8.82154941,5.84554063 C7.75354646,6.99178489 7.18361707,7.79545314 6.08357244,9.94604248 C2.68255488,16.5967256 3.05325485,28.6655229 8.39406271,27.756151 C13.7394706,26.8418142 16.1847897,18.1540931 15.4675003,12.0340104 C14.7537007,5.82984523 10.8514371,8.21698659 10.022795,11.14658 C11.1379087,9.76218215 14.1637849,10.859098 13.3901846,16.9336961 C12.3299542,25.1939579 5.53378806,26.1875725 6.16034556,17.5384493 C6.79911697,9.79485419 10.1284373,6.49673934 12.6072257,5.75280967 C15.2330568,4.98982132 20.9432957,8.37153818 18.4507072,21.3626801 C17.0886187,27.164851 14.6923139,32.1523028 9.35927851,33.7639636 M32.7604874,5.8654001 C32.6929144,4.635714 33.5647017,3.44318435 34.6999604,3.20519092 C35.8291915,2.96175215 36.8067799,3.76333836 36.8741943,4.98982132 C36.9414501,6.21998789 36.0787042,7.40787299 34.9497903,7.64602658 C33.8127867,7.89058645 32.8321846,7.09220338 32.7604874,5.8654001" id="Fill-33"></path>
            </g>
        </g>
    </g>
</svg>