<?xml version="1.0" encoding="UTF-8"?>
<svg width="144px" height="16px" viewBox="0 0 144 16" version="1.1" xmlns="http://www.w3.org/2000/svg" xmlns:xlink="http://www.w3.org/1999/xlink">
    <title>C5206801-5A2D-4501-9160-6E35E4FC3E95</title>
    <defs>
        <polygon id="path-1" points="0.0135901265 0.0360572832 143.874134 0.0360572832 143.874134 3.99830715 0.0135901265 3.99830715"></polygon>
    </defs>
    <g id="Page-1" stroke="none" stroke-width="1" fill="none" fill-rule="evenodd" opacity="0.75">
        <g id="Footer-con-sponsors-Siempre-desplegados/375" transform="translate(-173.000000, -648.000000)">
            <g id="Group" transform="translate(173.000000, 648.000000)">
                <g id="Group-37" transform="translate(0.000000, 12.000000)">
                    <mask id="mask-2" fill="white">
                        <use xlink:href="#path-1"></use>
                    </mask>
                    <g id="Clip-36"></g>
                    <path d="M131.543073,2.40713333 C130.838252,2.4182 130.271521,2.2502 130.278103,2.031 C130.286566,1.81353333 130.865118,1.625 131.569133,1.61326667 C132.273416,1.60166667 132.84176,1.7702 132.835446,1.98913333 C132.827924,2.2082 132.246819,2.39513333 131.543073,2.40713333 M127.921178,2.37046667 C127.217431,2.38166667 126.646401,2.2134 126.654999,1.99433333 C126.661312,1.77446667 127.242013,1.58766667 127.946028,1.5762 C128.650043,1.56526667 129.218924,1.73353333 129.210864,1.9534 C129.202536,2.16966667 128.624521,2.35873333 127.921178,2.37046667 M124.602461,2.26126667 C123.936193,2.27246667 123.400357,2.11286667 123.407745,1.90966667 C123.412178,1.70526667 123.961043,1.5286 124.626237,1.51726667 C125.291431,1.507 125.829685,1.66566667 125.820416,1.8714 C125.813297,2.07486667 125.266715,2.2518 124.602461,2.26126667 M124.096849,3.1414 C123.378999,3.15206667 122.802193,2.97966667 122.809446,2.75606667 C122.815491,2.53486667 123.406401,2.34286667 124.12479,2.3306 C124.84076,2.32033333 125.418775,2.49033333 125.41273,2.7146 C125.40373,2.93833333 124.814566,3.12833333 124.096849,3.1414 M121.46576,2.20926667 C120.832133,2.21793333 120.322491,2.06833333 120.327596,1.87673333 C120.33364,1.6822 120.855506,1.51513333 121.490342,1.50446667 C122.124909,1.49553333 122.636163,1.64473333 122.630118,1.839 C122.623401,2.03313333 122.09979,2.1994 121.46576,2.20926667 M120.688536,3.0754 C119.996207,3.0866 119.43579,2.9226 119.443178,2.70673333 C119.449491,2.49206667 120.020387,2.3078 120.713387,2.29633333 C121.40679,2.2866 121.965999,2.45246667 121.959416,2.6646 C121.953237,2.88006667 121.381804,3.06513333 120.688536,3.0754 M117.581655,3.05406667 C116.918342,3.0638 116.382237,2.90553333 116.3907,2.7026 C116.395401,2.49873333 116.941715,2.32433333 117.606506,2.31286667 C118.267939,2.30206667 118.804581,2.45806667 118.796655,2.66286667 C118.791954,2.86673333 118.244297,3.04326667 117.581655,3.05406667 M114.617163,1.81086667 C114.621327,1.65566667 115.05064,1.52353333 115.567804,1.51486667 C116.088864,1.5078 116.509984,1.6282 116.505819,1.78233333 C116.500178,1.9378 116.070864,2.069 115.549536,2.0782 C115.029819,2.08633333 114.610581,1.96553333 114.617163,1.81086667 M114.323118,2.9682 C113.744297,2.97686667 113.275491,2.841 113.282879,2.665 C113.291073,2.49126667 113.765521,2.33966667 114.345013,2.33033333 C114.924775,2.3218 115.392372,2.45806667 115.384984,2.63446667 C115.381222,2.80846667 114.902073,2.95913333 114.323118,2.9682 M113.023357,3.96913333 C112.391207,3.97833333 111.880625,3.82873333 111.886536,3.637 C111.892849,3.44126667 112.414178,3.27566667 113.046058,3.26433333 C113.681163,3.25473333 114.192148,3.40406667 114.186372,3.5982 C114.178984,3.793 113.658058,3.95873333 113.023357,3.96913333 M110.486163,2.6098 C110.490596,2.4402 110.957521,2.29446667 111.523312,2.2858 C112.090043,2.27353333 112.54676,2.40753333 112.541387,2.57913333 C112.535073,2.7482 112.068551,2.89446667 111.503028,2.90286667 C110.936566,2.91313333 110.480521,2.78313333 110.486163,2.6098 M110.057252,3.89713333 C109.451163,3.90606667 108.962073,3.76286667 108.968252,3.5786 C108.972819,3.39273333 109.476013,3.237 110.081834,3.22633333 C110.68564,3.2174 111.178357,3.35793333 111.16976,3.54406667 C111.163446,3.72726667 110.664954,3.885 110.057252,3.89713333 M107.846073,2.5802 C107.848491,2.42353333 108.283446,2.28806667 108.814984,2.28006667 C109.344506,2.27006667 109.771536,2.3938 109.767506,2.5514 C109.760924,2.711 109.323819,2.84446667 108.796446,2.8518 C108.267461,2.86126667 107.839222,2.73766667 107.846073,2.5802 M106.379879,1.69633333 C106.382566,1.55993333 106.767282,1.4426 107.23676,1.43473333 C107.706372,1.4266 108.084103,1.5338 108.078999,1.6714 C108.074566,1.8066 107.688909,1.92593333 107.220372,1.93433333 C106.752775,1.94006667 106.372491,1.83446667 106.379879,1.69633333 M105.692655,2.75193333 C105.203431,2.75886667 104.808775,2.64726667 104.814148,2.50286667 C104.819655,2.36006667 105.220625,2.23646667 105.70864,2.22966667 C106.198267,2.22326667 106.590372,2.33326667 106.58567,2.4774 C106.581372,2.62246667 106.179999,2.74406667 105.692655,2.75193333 M104.031282,1.90126667 C103.562207,1.9078 103.186222,1.79993333 103.189028,1.6646 C103.194013,1.5262 103.579401,1.41033333 104.046193,1.40353333 C104.517013,1.3962 104.896357,1.50206667 104.890446,1.6382 C104.885476,1.77766667 104.499685,1.89326667 104.031282,1.90126667 M102.626073,2.72006667 C102.137387,2.7278 101.743804,2.61566667 101.7477,2.4722 C101.751864,2.32753333 102.152566,2.2062 102.641252,2.19726667 C103.129804,2.19046667 103.524461,2.3018 103.5207,2.4462 C103.515058,2.58806667 103.113282,2.71406667 102.626073,2.72006667 M100.490924,1.637 C100.495357,1.50073333 100.880207,1.38233333 101.349685,1.37526667 C101.816879,1.36793333 102.196088,1.47526667 102.19515,1.6122 C102.186551,1.74926667 101.799148,1.86473333 101.33276,1.8738 C100.864894,1.879 100.48461,1.7734 100.490924,1.637 M99.7570881,2.62766667 C99.2701478,2.6326 98.8740134,2.52326667 98.8803269,2.37886667 C98.8855657,2.23526667 99.2872075,2.11073333 99.776297,2.10473333 C100.263506,2.0978 100.659372,2.20953333 100.654133,2.35206667 C100.648357,2.4966 100.246581,2.61846667 99.7570881,2.62766667 M97.3426701,1.6182 C97.3472373,1.4898 97.7104612,1.3802 98.1580433,1.37366667 C98.6010582,1.3654 98.9597149,1.46793333 98.9534015,1.5942 C98.9511179,1.7238 98.5849388,1.83313333 98.1405806,1.83926667 C97.6939388,1.847 97.338103,1.74713333 97.3426701,1.6182 M96.6377149,1.00513333 C96.2648194,1.0102 95.9649985,0.931133333 95.9687597,0.8258 C95.9715806,0.7226 96.2757,0.633666667 96.6506104,0.629 C97.0232373,0.6234 97.3234612,0.704733333 97.3198343,0.808733333 C97.3179537,0.912066667 97.0098045,1.0006 96.6377149,1.00513333 M96.4151328,2.5894 C95.9713119,2.59713333 95.6114463,2.49726667 95.613719,2.3682 C95.6197746,2.24046667 95.9856851,2.1286 96.4323269,2.1234 C96.879103,2.11673333 97.2388343,2.215 97.2331925,2.3466 C97.2287597,2.4738 96.8600284,2.58513333 96.4151328,2.5894 M94.321491,1.47753333 C94.3248493,1.34873333 94.6892821,1.23953333 95.1340433,1.23273333 C95.5777299,1.225 95.9365209,1.3226 95.9334313,1.45473333 C95.9292672,1.58193333 95.5629537,1.6938 95.1165806,1.69886667 C94.674103,1.70473333 94.3170582,1.60566667 94.321491,1.47753333 M93.4823418,2.38446667 C93.0520881,2.39166667 92.7020284,2.29526667 92.7057896,2.171 C92.712103,2.04673333 93.0676701,1.9394 93.4973866,1.93246667 C93.9324761,1.92593333 94.2807896,2.0242 94.2771627,2.1482 C94.2731328,2.27273333 93.9166254,2.37806667 93.4823418,2.38446667 M91.8967299,1.64366667 C91.4538493,1.64913333 91.0938493,1.5518 91.0989537,1.42073333 C91.1027149,1.2926 91.4670134,1.1834 91.9117746,1.17833333 C92.3565358,1.1714 92.7149239,1.27086667 92.7098194,1.39913333 C92.7051179,1.5278 92.3393418,1.63646667 91.8967299,1.64366667 M90.237506,0.7814 C90.2412672,0.676733333 90.5459239,0.5886 90.9209687,0.5838 C91.2918493,0.578333333 91.5946254,0.6602 91.5899239,0.763133333 C91.5864313,0.865933333 91.281909,0.957666667 90.9084761,0.962066667 C90.5335657,0.965133333 90.2340134,0.885 90.237506,0.7814 M90.0389687,2.263 C89.607103,2.27033333 89.2571776,2.1726 89.2622821,2.04753333 C89.2656403,1.92406667 89.623491,1.8174 90.0553567,1.8098 C90.4868194,1.80393333 90.8359388,1.901 90.8316403,2.02526667 C90.8280134,2.15086667 90.4712373,2.25673333 90.0389687,2.263 M88.464103,1.36993333 C88.4678642,1.2622 88.788506,1.16806667 89.1780582,1.16166667 C89.5680134,1.15713333 89.886506,1.2418 89.8799239,1.35193333 C89.8783119,1.46153333 89.5551179,1.55433333 89.166909,1.56006667 C88.7753418,1.5674 88.4600731,1.48126667 88.464103,1.36993333 M87.4190284,2.22926667 C86.9581478,2.235 86.5860582,2.13113333 86.5906254,1.99686667 C86.5950582,1.86073333 86.9731925,1.74713333 87.4347448,1.74033333 C87.8961627,1.73433333 88.2677149,1.83766667 88.2636851,1.97193333 C88.2597896,2.1078 87.8785657,2.22246667 87.4190284,2.22926667 M86.2801925,1.30633333 C86.2834164,1.19753333 86.6060731,1.1042 86.9961627,1.0986 C87.3854463,1.0926 87.699909,1.17833333 87.6975049,1.28686667 C87.6937299,1.3962 87.373491,1.49073333 86.9821925,1.49553333 C86.5926403,1.50153333 86.2767,1.41526667 86.2801925,1.30633333 M85.2735229,0.780733333 C85.278103,0.674733333 85.5859836,0.587 85.9559239,0.582866667 C86.3296254,0.576466667 86.6311925,0.659 86.627297,0.7626 C86.6244761,0.865266667 86.3178045,0.954333333 85.9455806,0.9582 C85.5716104,0.963666667 85.2712522,0.885 85.2735229,0.780733333 M85.1453866,2.1754 C84.7327299,2.18233333 84.3983866,2.09033333 84.4032224,1.97233333 C84.4052373,1.85473333 84.7477746,1.7514 85.1592224,1.74633333 C85.573894,1.74113333 85.9090433,1.831 85.9050134,1.94953333 C85.9021925,2.06793333 85.5614015,2.1694 85.1453866,2.1754 M83.8007597,1.29953333 C83.8042522,1.18913333 84.1263716,1.0958 84.5151179,1.09126667 C84.9068194,1.085 85.2210134,1.1718 85.2177896,1.28046667 C85.2133567,1.39126667 84.8937896,1.48326667 84.5022224,1.4898 C84.1137448,1.49486667 83.7975358,1.40926667 83.8007597,1.29953333 M82.8894761,0.907 C82.5840134,0.9098 82.3402075,0.846733333 82.3402075,0.765533333 C82.3426254,0.685 82.594491,0.6166 82.900491,0.613933333 C83.2050134,0.6098 83.451506,0.6722 83.4503014,0.752333333 C83.4466701,0.8342 83.1945358,0.903133333 82.8894761,0.907 M82.6705209,2.02286667 C82.2571925,2.03073333 81.9227149,1.9386 81.9263418,1.8198 C81.9318493,1.7002 82.272103,1.60166667 82.686909,1.59486667 C83.0994313,1.58806667 83.4343119,1.68153333 83.4290731,1.7982 C83.4255806,1.91806667 83.0861328,2.01713333 82.6705209,2.02286667 M80.8521171,1.20486667 C80.8562821,1.11486667 81.1296403,1.03873333 81.4623716,1.03606667 C81.7941627,1.03046667 82.0609388,1.1018 82.0586552,1.19113333 C82.056506,1.27873333 81.7830134,1.3574 81.4498791,1.36033333 C81.1172821,1.36393333 80.8515806,1.2958 80.8521171,1.20486667 M80.0172672,1.86873333 C79.6552522,1.8722 79.3624164,1.79566667 79.3676552,1.69633333 C79.3702075,1.5982 79.6655955,1.50993333 80.0301627,1.50633333 C80.3925806,1.4998 80.6838045,1.57833333 80.679506,1.67726667 C80.677491,1.77833333 80.3786104,1.86473333 80.0172672,1.86873333 M88.7770881,0.547933333 C89.1502522,0.543266667 89.4508791,0.623666667 89.4476552,0.725666667 C89.4444313,0.831 89.1381627,0.920066667 88.7636552,0.9238 C88.3910284,0.9314 88.0908045,0.8494 88.09241,0.7446 C88.0976552,0.6426 88.4043269,0.552066667 88.7770881,0.547933333 M93.4429836,0.6622 C93.8157448,0.657266667 94.1173119,0.736333333 94.1118045,0.839933333 C94.1084463,0.9438 93.8017746,1.03246667 93.431297,1.03873333 C93.0586701,1.0434 92.7565657,0.962866667 92.7620731,0.859533333 C92.7642224,0.7566 93.0710284,0.6678 93.4429836,0.6622 M99.6324313,0.6818 C100.038506,0.677 100.368685,0.765266667 100.363043,0.881266667 C100.361028,0.996733333 100.025342,1.09553333 99.6180582,1.10046667 C99.2106403,1.10593333 98.8834164,1.0166 98.886909,0.9006 C98.8905358,0.785666667 99.226491,0.686066667 99.6324313,0.6818 M102.633193,0.7566 C103.040342,0.748733333 103.367566,0.839133333 103.364073,0.956066667 C103.36179,1.0698 103.025834,1.17046667 102.619894,1.17486667 C102.211804,1.18206667 101.883237,1.0918 101.887939,0.977133333 C101.892909,0.859533333 102.226715,0.7622 102.633193,0.7566 M105.460939,0.751266667 C105.886894,0.744333333 106.231043,0.839933333 106.225536,0.961133333 C106.221909,1.08246667 105.871984,1.18806667 105.449252,1.19366667 C105.022894,1.1994 104.677401,1.10326667 104.684252,0.983933333 C104.688013,0.8602 105.03673,0.757666667 105.460939,0.751266667 M108.544043,0.761533333 C108.967581,0.752333333 109.311461,0.848733333 109.308923,0.969933333 C109.304879,1.0898 108.954954,1.19686667 108.528999,1.20393333 C108.103312,1.20846667 107.760237,1.1142 107.763864,0.990866667 C107.767625,0.8698 108.119431,0.766333333 108.544043,0.761533333 M110.264521,1.46553333 C110.73064,1.45926667 111.1077,1.56553333 111.104476,1.7026 C111.101118,1.839 110.713446,1.95633333 110.246252,1.965 C109.776237,1.97126667 109.398237,1.86566667 109.40173,1.72753333 C109.408043,1.58806667 109.792894,1.47406667 110.264521,1.46553333 M111.62379,0.769666667 C112.050416,0.760866667 112.392954,0.8562 112.389327,0.9786 C112.386372,1.101 112.034566,1.20433333 111.610357,1.21086667 C111.186685,1.21686667 110.839984,1.1218 110.846028,0.999666667 C110.850327,0.8798 111.198506,0.7754 111.62379,0.769666667 M113.786207,1.70406667 C113.782312,1.84126667 113.393297,1.9594 112.925969,1.9658 C112.459043,1.9726 112.079431,1.8662 112.085073,1.7278 C112.088969,1.59166667 112.472476,1.47526667 112.9437,1.46953333 C113.411834,1.45993333 113.790775,1.56766667 113.786207,1.70406667 M114.065207,0.794333333 C114.492775,0.786733333 114.835043,0.882066667 114.831954,1.00446667 C114.826446,1.1266 114.477864,1.23206667 114.050431,1.23526667 C113.624207,1.2426 113.281804,1.14793333 113.286103,1.02446667 C113.292148,0.9026 113.642207,0.7994 114.065207,0.794333333 M116.546252,0.8294 C117.025804,0.8222 117.412133,0.9326 117.407834,1.07193333 C117.402193,1.21366667 117.009148,1.33273333 116.527984,1.34113333 C116.051118,1.34713333 115.664387,1.2382 115.66761,1.09753333 C115.672715,0.957933333 116.068178,0.836466667 116.546252,0.8294 M118.490655,1.49206667 C119.094596,1.48206667 119.580999,1.62606667 119.576028,1.8082 C119.569715,1.99366667 119.0727,2.15006667 118.467685,2.16006667 C117.863745,2.1686 117.37573,2.02646667 117.381775,1.8442 C117.389431,1.6598 117.886178,1.50153333 118.490655,1.49206667 M119.369969,0.821933333 C119.907685,0.811933333 120.345461,0.9378 120.338073,1.09753333 C120.333103,1.25926667 119.889685,1.39913333 119.349685,1.4074 C118.809685,1.41646667 118.374327,1.29046667 118.380237,1.12886667 C118.385476,0.966333333 118.829566,0.8294 119.369969,0.821933333 M122.049416,0.8182 C122.588342,0.811933333 123.023028,0.9374 123.019267,1.09686667 C123.012685,1.25833333 122.56967,1.39713333 122.029536,1.40673333 C121.488999,1.41406667 121.055387,1.2882 121.059013,1.12633333 C121.063581,0.9654 121.510357,0.827133333 122.049416,0.8182 M143.61167,1.68406667 C143.175506,1.6582 142.731282,1.641 142.295521,1.6166 C142.127879,1.6478 141.939013,1.6706 141.736984,1.673 C141.361536,1.67873333 141.034581,1.6266 140.832551,1.54433333 C140.3667,1.5206 139.899103,1.49606667 139.432178,1.47433333 C139.226252,1.5682 138.883043,1.63313333 138.496178,1.63846667 C137.940193,1.64806667 137.483745,1.53166667 137.3967,1.3718 C137.042342,1.35486667 136.695237,1.33433333 136.341551,1.31886667 C136.224954,1.47473333 135.770655,1.597 135.233745,1.6062 C134.614625,1.61566667 134.113581,1.47006667 134.120566,1.28046667 C134.120834,1.26126667 134.129969,1.2442 134.140984,1.22446667 C133.79267,1.20993333 133.443685,1.19686667 133.096312,1.18193333 C133.098461,1.19073333 133.104775,1.2014 133.104237,1.21086667 C133.100745,1.41113333 132.556849,1.58366667 131.904148,1.5954 C131.247551,1.6054 130.718566,1.44993333 130.728775,1.24753333 C130.729178,1.19113333 130.77364,1.13926667 130.849804,1.0906 C130.336939,1.06873333 129.829715,1.04753333 129.318058,1.0282 C129.387103,1.0714 129.428207,1.1202 129.426999,1.17286667 C129.419879,1.365 128.904999,1.5278 128.280372,1.5386 C127.656282,1.54686667 127.151879,1.401 127.158327,1.209 C127.161685,1.11313333 127.294804,1.02473333 127.505028,0.958866667 C126.921103,0.9374 126.330864,0.9198 125.744655,0.899933333 C126.010894,0.954333333 126.183506,1.0454 126.179342,1.1526 C126.174506,1.32833333 125.697909,1.47793333 125.116401,1.48793333 C124.537178,1.49606667 124.068237,1.36193333 124.075357,1.18513333 C124.078446,1.04273333 124.400431,0.917266667 124.832834,0.8698 C110.1807,0.380866667 95.1950284,0.1822 80.3999687,0.0918 C64.7579687,-0.0054 49.0536403,0.0046 33.3823567,0.2838 C22.3796552,0.482066667 11.3969687,0.8554 0.447192537,1.6678 C0.0192223881,1.6698 -0.319419403,2.01113333 0.584476119,1.95833333 C14.1797149,1.71073333 28.5547299,1.2966 42.0973119,1.51913333 C49.8915806,1.649 57.6827597,1.80593333 65.4786403,1.93886667 C73.2006403,2.06753333 80.6177149,2.36886667 87.310894,2.70433333 C87.5090284,2.62273333 87.8136851,2.56913333 88.158103,2.56206667 C88.6651925,2.555 89.0868493,2.65526667 89.1878642,2.79873333 C89.6765507,2.8242 90.1617448,2.84886667 90.6417,2.87553333 C90.8390284,2.79566667 91.1415358,2.74246667 91.4823269,2.73633333 C91.9926403,2.727 92.4192672,2.83073333 92.5162522,2.97566667 C92.9007,2.99646667 93.2850134,3.01766667 93.6631478,3.0382 C93.7362224,2.88126667 94.1836701,2.75086667 94.7232672,2.74113333 C95.3110881,2.73086667 95.7836552,2.8682 95.779491,3.04593333 C95.779491,3.08273333 95.7516851,3.1194 95.7120582,3.15286667 C96.1198791,3.17646667 96.5263567,3.2002 96.9281328,3.2214 C96.9057,3.19593333 96.8910582,3.16913333 96.8911925,3.14166667 C96.896297,2.96366667 97.3797448,2.81033333 97.9660881,2.8014 C98.5528343,2.7914 99.0274164,2.9294 99.021506,3.10686667 C99.0186851,3.18966667 98.9101478,3.26566667 98.7418343,3.327 C99.2489239,3.35486667 99.7502373,3.38313333 100.240536,3.41166667 C100.07276,3.35633333 99.9681179,3.2838 99.9701328,3.20273333 C99.9772522,3.02326667 100.459491,2.87193333 101.046506,2.86073333 C101.633387,2.8522 102.1077,2.98993333 102.10179,3.16686667 C102.097894,3.30406667 101.812849,3.42393333 101.417924,3.47873333 C102.070088,3.51553333 102.705058,3.54953333 103.323372,3.5846 C103.155461,3.53033333 103.051491,3.45833333 103.052297,3.37566667 C103.05861,3.19646667 103.541521,3.04446667 104.127058,3.03526667 C104.71461,3.02633333 105.187849,3.1634 105.182745,3.34006667 C105.1767,3.47726667 104.899446,3.59673333 104.508416,3.651 C105.151715,3.68526667 105.778357,3.71886667 106.380148,3.74953333 C106.225536,3.69726667 106.1307,3.62766667 106.133521,3.54846667 C106.138491,3.36966667 106.622879,3.21926667 107.208551,3.20793333 C107.795834,3.19873333 108.268133,3.3378 108.262357,3.51486667 C108.258596,3.64273333 108.005118,3.7574 107.645387,3.81446667 C108.888327,3.87433333 110.03267,3.9246 111.060685,3.95873333 C112.589073,4.01006667 114.123103,4.00846667 115.658073,3.97113333 C115.379207,3.90286667 115.199207,3.7978 115.203372,3.673 C115.209685,3.45513333 115.796297,3.26473333 116.503939,3.25326667 C117.211312,3.24233333 117.782342,3.41113333 117.777372,3.63273333 C117.77361,3.73486667 117.638476,3.83073333 117.427446,3.90686667 C117.818745,3.8882 118.210446,3.87193333 118.601073,3.851 C118.571655,3.81526667 118.550297,3.7786 118.552715,3.74006667 C118.559297,3.50446667 119.178819,3.30126667 119.930387,3.29006667 C120.663148,3.27793333 121.252581,3.44913333 121.276491,3.67513333 C123.088849,3.53913333 124.90564,3.37206667 126.722834,3.1854 C126.37076,3.11393333 126.141058,2.98966667 126.146297,2.8434 C126.15261,2.60566667 126.778043,2.40246667 127.534849,2.38993333 C128.293536,2.37806667 128.904193,2.56113333 128.897745,2.79846667 C128.895193,2.85953333 128.852073,2.9178 128.776849,2.97166667 C129.108775,2.93566667 129.441372,2.90086667 129.774506,2.8646 C129.807819,2.63446667 130.415521,2.4402 131.159297,2.4258 C131.639924,2.41926667 132.060372,2.49046667 132.302028,2.60393333 C132.984954,2.53806667 133.672849,2.47446667 134.365984,2.4166 C133.915581,2.36206667 133.602327,2.22713333 133.606894,2.0646 C133.613879,1.8454 134.194178,1.65806667 134.897924,1.64646667 C135.60167,1.635 136.172163,1.8074 136.162491,2.0242 C136.158461,2.1298 136.0197,2.22926667 135.798864,2.3026 C136.177401,2.275 136.557954,2.2462 136.937431,2.2222 C136.895118,2.18366667 136.86664,2.14193333 136.869058,2.0978 C136.87564,1.8798 137.454999,1.69233333 138.160894,1.68126667 C138.865984,1.66953333 139.430297,1.8366 139.425058,2.05646667 C139.423984,2.07033333 139.415252,2.0858 139.409342,2.10033333 C139.64979,2.09073333 139.892252,2.07873333 140.131088,2.07126667 C140.231163,1.8798 140.763909,1.723 141.400894,1.71326667 C142.064745,1.70366667 142.602999,1.85433333 142.65579,2.0538 C142.926461,2.05806667 143.20264,2.057 143.469416,2.063 C143.919416,2.07873333 144.03279,1.70366667 143.61167,1.68406667" id="Fill-35" fill="#FFFFFF" mask="url(#mask-2)"></path>
                </g>
                <path d="M1.38587178,12.6545091 C2.20784929,12.599706 3.03143536,12.5403148 3.85247454,12.4898451 C28.7861944,10.8765964 53.9925664,10.9396837 79.0859365,11.047378 C82.5686171,11.0640738 86.0508956,11.0800049 89.5338443,11.1126319 C106.642558,11.2681196 123.763738,11.6569663 140.785188,12.5245112 C141.703143,12.5705202 142.620696,12.6241762 143.534094,12.6742637 C144.229397,12.7126258 144.098969,13.0306109 143.456749,12.9976016 C142.730883,12.9577101 142.049253,12.9198578 141.345371,12.8809858 C139.852889,12.8040067 138.357995,12.7244786 136.863502,12.6529797 C118.437372,11.7586705 100.026256,11.4677046 81.5749251,11.3816766 C74.0674769,11.3486673 66.5577499,11.3143835 59.0480229,11.3248343 C41.4810017,11.3480301 23.8753748,11.6039475 6.42350008,12.6561659 C4.76855319,12.7554486 3.11829795,12.8647998 1.46737248,12.9765725 C0.817645643,13.0567379 0.897939923,12.6539993 1.38587178,12.6545091" id="Fill-38" fill="#FFFFFF"></path>
                <path d="M133.610532,4.19641469 C132.617779,4.8374111 131.903774,5.7170097 131.409695,6.64143989 C131.354944,6.73996039 131.304919,6.8428414 131.260408,6.94490482 C131.004244,7.53452885 130.905244,8.1608085 131.109808,8.77223514 C131.149986,8.89160437 131.199223,9.00688561 131.260408,9.11780633 C131.321988,9.22872705 131.393152,9.33910271 131.474163,9.44457278 C132.27023,10.4585299 133.839912,10.8523393 135.276982,10.9479982 C135.429814,10.9579457 135.581465,10.9648953 135.733772,10.9699371 C136.09235,10.9820648 136.451322,10.9940562 136.812657,10.9962365 C137.781908,11.0089093 138.771378,10.9997794 139.710955,10.8034198 L139.971716,10.7493221 L141.376486,8.27622601 L140.688478,8.40159096 C139.827549,8.55788834 138.947976,8.67957409 138.065908,8.71922757 C137.340217,8.75234027 136.565683,8.73571578 135.89225,8.50065651 C135.700422,8.43334099 135.510038,8.34395033 135.371123,8.21872166 C135.03119,7.91253141 135.134785,7.48438287 135.276982,7.1306357 C135.404867,6.81163643 135.587636,6.50135819 135.746902,6.18821837 C135.960919,5.77219753 136.278795,5.39010698 136.753704,5.12738566 C137.190405,4.88782961 137.721773,4.78140567 138.25104,4.82909886 C138.429344,4.84490574 138.613557,4.88292402 138.7614,4.96441124 C139.114988,5.15927196 139.115776,5.53972732 139.050652,5.84182958 L139.043955,5.86867403 L136.791518,5.86867403 L135.555993,7.38231946 L142.311073,7.38231946 C142.410729,7.2174373 142.512092,7.05255515 142.60085,6.88494767 C142.81408,6.4775116 142.971902,6.02796926 143,5.58142479 L143,5.27973132 C142.977285,4.93674919 142.8666,4.6000353 142.640109,4.29234612 C141.926498,3.32894379 140.386096,3.05927289 139.069821,3.01117091 C137.420966,2.9498511 135.717753,3.13040387 134.289087,3.81677694 C134.05393,3.93137685 133.826782,4.05919458 133.610532,4.19641469" id="Fill-40" fill="#FFFFFF"></path>
                <path d="M117.657205,5.4658597 L118.135648,5.62807464 L118.190606,5.48897791 L119,3.37708392 C118.813731,3.34505422 118.629067,3.31044147 118.441728,3.28009075 C118.359358,3.2645925 118.274046,3.25245221 118.190606,3.23863294 C117.431355,3.11955477 116.660873,3.03831815 115.888251,3.01067961 C115.21565,2.98704479 114.538101,3.0004766 113.873924,3.07280174 C112.978148,3.17031152 112.105238,3.37243445 111.323122,3.70538838 C110.026994,4.25893398 109.052458,5.15072874 108.489372,6.15604814 C108.375177,6.36721171 108.2674,6.58844914 108.185699,6.81278621 C107.987796,7.35225424 107.920937,7.92091063 108.120444,8.45921629 C108.140769,8.50893982 108.160159,8.56124639 108.185699,8.6094201 C108.331317,8.9182226 108.568667,9.19577031 108.883572,9.43160192 C109.062888,9.56746985 109.257982,9.67918636 109.471931,9.78767406 L109.668496,9.88066352 C111.577319,9.91605118 113.484805,9.95660492 115.393361,10 C115.586717,9.95247205 115.774724,9.89964887 115.962732,9.84630908 L117.519743,7.91303235 L116.617281,8.13827349 C115.95297,8.2976471 115.261114,8.42447439 114.560699,8.43919772 C113.947469,8.45430851 113.280217,8.38611624 112.840552,8.04528403 C112.647063,7.89495107 112.518292,7.70561419 112.456916,7.50297466 C112.298861,6.99424481 112.560815,6.439666 112.988177,6.03542015 C113.876465,5.19606111 115.498998,5.04392001 116.835776,5.26825709 C117.1222,5.31488097 117.3891,5.38268579 117.657205,5.4658597" id="Fill-42" fill="#FFFFFF"></path>
                <polygon id="Fill-48" fill="#FFFFFF" points="90.20931 2 91 0 89.9055717 0 86.8445687 0 86 2"></polygon>
                <path d="M72.9416796,10 L74.7077018,5.60953815 L74.8754133,5.19231816 C74.9651288,4.97377436 75.0163179,4.75551237 74.9953034,4.52358258 C74.9878945,4.41663562 74.9618958,4.31011137 74.9190587,4.20795517 C74.8694861,4.08945399 74.7963397,3.98349336 74.7077018,3.89035509 C74.2985935,3.45115391 73.5311619,3.25698669 72.8766156,3.1551123 C72.1812528,3.04591086 71.4588136,3.01251635 70.7482288,3.0027939 C69.7485606,2.98870339 68.7459287,3.02900224 67.7520529,3.09903208 C66.854628,3.16131213 65.9538355,3.23711907 65.0698814,3.3818286 L64.7894193,3.42720004 L63.6608355,5.37619931 L64.5303758,5.15666918 C64.983803,5.04014066 65.4455821,4.96320648 65.9151743,4.89655837 C66.7095475,4.77988895 67.5223757,4.70873188 68.3298156,4.69393684 C68.7604772,4.68675068 69.2056872,4.69210508 69.6309604,4.75410332 C69.7658032,4.77185736 69.9127696,4.79750209 70.036701,4.84865064 C70.1076921,4.87753618 70.1045939,4.88923131 70.1045939,4.95108864 C70.1045939,5.162869 69.8398926,5.27982023 69.6254374,5.3591498 C69.302677,5.47455107 68.9474519,5.5417628 68.6021953,5.60502919 C67.4326602,5.81666864 66.2457478,5.95334658 65.0698814,6.14300484 C63.9879066,6.31941802 62.8387124,6.54937513 62.0137604,7.16724397 C62.005678,7.17513466 61.9939584,7.18062996 61.9877618,7.18922517 C61.5611415,7.51570227 61.2359563,7.9505354 61.0768661,8.40044536 C60.9513182,8.75763978 60.9711203,9.1261066 61.199181,9.45807901 C61.3178588,9.63111046 61.4983675,9.7897696 61.7019114,9.90615721 L61.8511679,9.99112298 L62.0137604,9.99112298 L67.1427685,9.99112298 L68.4294996,8.59151267 L67.5314012,8.73833578 C67.1427685,8.79991131 66.7401262,8.83358763 66.3436805,8.79991131 C66.1550893,8.78328451 65.7454422,8.73171324 65.7062421,8.54275951 C65.6885954,8.45159391 65.7245624,8.34126522 65.7989212,8.26954453 C65.9060141,8.16710653 66.070762,8.0915814 66.218402,8.0308513 C66.5813055,7.88008285 66.9776165,7.78863544 67.3717721,7.70310605 C67.9438771,7.58206857 68.5105938,7.44764511 69.0786575,7.31223532 L69.4408874,7.22670592 L68.2782225,9.99126388 C69.8322142,9.99394108 71.3858019,9.99690009 72.9416796,10" id="Fill-54" fill="#FFFFFF"></path>
                <path d="M38.995954,4.44446854 C38.9866598,4.34307404 38.9625487,4.24194673 38.9178287,4.14549505 C38.6336142,3.51081095 37.6718647,3.26473895 36.8788928,3.14704652 C36.1807489,3.0435146 35.4587633,3.01185387 34.7489006,3.00263619 C33.7501089,2.98927723 32.7472763,3.02775103 31.7537378,3.09401146 C30.8555662,3.15305806 29.9545658,3.22479566 29.071211,3.36225934 L28.790364,3.40500801 L27.6617227,5.25281909 L28.5316076,5.04482011 C28.9860814,4.93420794 29.4472901,4.86126803 29.9161767,4.79808016 C30.7104956,4.68746798 31.52246,4.62000525 32.3315957,4.60624552 C32.7620931,4.59916527 33.2070033,4.60424168 33.630631,4.6628875 C33.7676197,4.67998697 33.9143067,4.70416668 34.0366133,4.7526597 C34.1086771,4.78004556 34.1035586,4.79099991 34.1035586,4.84977933 C34.1043668,5.05056447 33.8406265,5.16144382 33.6259166,5.23678834 C33.3057375,5.34606462 32.9471693,5.40978685 32.6035526,5.46976857 C32.2449844,5.53242208 31.8807588,5.58665945 31.5196313,5.63942734 C30.5414485,5.78316973 29.5553186,5.89044216 28.5818503,6.05956657 C27.7127735,6.21292741 26.8399253,6.41918972 26.1467652,6.86364226 C25.9878206,6.96356727 25.8447705,7.07604969 25.7177495,7.19694827 C25.5702543,7.33254169 25.4409434,7.48256279 25.3321068,7.63979773 C25.0932858,7.99434447 24.9249123,8.38963605 25.0338836,8.78719864 C25.1250747,9.11729849 25.3811372,9.36777896 25.7177495,9.55360207 C26.123597,9.78123871 26.6487877,9.9160306 27.1338381,9.98856974 C27.1590267,9.9929782 27.1844848,9.99898973 27.2106164,9.99898973 C27.2578957,10.0019287 27.3062525,9.99752024 27.3544747,9.99752024 C28.437049,9.97013438 29.5219133,9.94595467 30.6055652,9.921107 L30.8644563,9.9160306 L32.4295218,8.30119974 L31.5305419,8.44053368 C31.1186329,8.50251924 30.6796495,8.53725253 30.258581,8.48996182 C30.1008487,8.47259518 29.8897757,8.43826265 29.7727224,8.34889122 C29.6699473,8.26980619 29.700928,8.16533914 29.7393171,8.07049054 C29.7727224,7.99247422 29.9000128,7.92046944 29.9816403,7.87678564 C30.0899381,7.81760546 30.2096854,7.77124987 30.3295673,7.72756608 C30.664698,7.61094238 31.0154537,7.5311894 31.3726749,7.45918461 C32.0286581,7.3273317 32.6797922,7.17891367 33.3305221,7.03089642 L33.4408404,7.00738465 L32.1634916,9.88864473 C33.7328674,9.85885426 35.3017045,9.83120121 36.8708109,9.80621996 L38.8755333,5.07848469 C38.9641651,4.87128725 39.015216,4.66435699 38.995954,4.44446854" id="Fill-60" fill="#FFFFFF"></path>
                <path d="M20.8512897,9.89144289 C21.752918,9.86552842 22.655555,9.8407743 23.5557424,9.81692268 L26.2124982,4.52366744 L27,3 L26.2124982,3 L21.8388011,3 L18,10 L20.8512897,9.89144289 Z" id="Fill-62" fill="#FFFFFF"></path>
                <path d="M2,0.000854225179 L4.84661638,11 C6.90770653,10.875995 8.97123981,10.7620983 11.031687,10.6601607 L20.4334419,2.28562184 L23,0 L20.4334419,0 L16.9201119,0.000854225179 L9.29154523,6.81230343 L7.85807882,0.000854225179 L2,0.000854225179 Z" id="Fill-64" fill="#FFFFFF"></path>
                <path d="M23,2 L26.7847523,2 L28,0.0417959486 C26.062669,-0.152541284 24.269066,0.302806654 23,2" id="Fill-66" fill="#FFFFFF"></path>
                <path d="M102.308159,4.69588942 C104.066692,4.7527943 104.491691,6.09387652 104.247609,6.6904413 C103.993181,7.32100494 102.99412,8.2055516 101.477628,8.38418968 C101.283506,8.40651944 101.080672,8.41674792 100.871575,8.4160631 C98.8263524,8.39124877 98.4519938,7.27404041 98.714181,6.57158934 C98.9447858,5.95874545 99.9533759,4.98142224 101.477628,4.74559115 C101.73927,4.70482133 102.016024,4.68710158 102.308159,4.69588942 M95.7217627,5.45697411 C95.4319411,5.80503026 95.230332,6.17541617 95.1263284,6.56179306 C94.8171763,7.67842517 95.0981494,8.50577883 95.7217627,9.10565706 C96.0642668,9.43714596 96.5136332,9.69660338 97.0242583,9.89944404 C98.5082157,9.9178841 99.9924453,9.93790886 101.477628,9.96009456 C102.337019,9.97248397 103.197771,9.98516151 104.058252,10 C105.77717,9.46869575 107.128673,8.43302703 107.81967,6.67747563 C108.477997,5.03688648 107.437689,3.05371558 102.968392,3.00084447 C102.453819,2.9956582 101.955718,3.01438639 101.477628,3.05630872 C98.7830629,3.28911448 96.7244992,4.2364726 95.7217627,5.45697411" id="Fill-70" fill="#FFFFFF"></path>
                <path d="M117,10.1691373 C117.14376,10.1732032 117.282829,10.1743467 117.423968,10.1776502 C118.477059,10.2030621 119.533323,10.2299987 120.585448,10.2559189 L122.070095,7.21081276 C122.548559,6.22902461 124.072802,5.58254627 125.72218,5.68800559 C126.899301,5.80083436 126.868949,6.55200966 126.701873,6.87423235 L125.304834,10.3871712 C126.502512,10.4233832 127.698673,10.4606116 128.893731,10.5 L130.809106,5.93894795 C131.398081,4.74573292 130.698458,4.08845453 127.66501,4.08578629 C124.130747,4.07956037 123.337722,5.2546059 122.924239,5.22118928 L125.068085,1.5 L121.331841,1.5 L117.423968,9.31987209 L117,10.1691373 Z" id="Fill-74" fill="#FFFFFF"></path>
                <path d="M83.7060536,9.9814518 C84.8515401,9.98743509 85.9263773,9.99207214 87.1066022,10 L89.7455452,3.61403509 L90,3 L89.7455452,3 L85.873317,3 L83.7060536,8.26185439 L83,9.97786183 C83.2383316,9.98010556 83.4749042,9.98010556 83.7060536,9.9814518" id="Fill-82" fill="#FFFFFF"></path>
                <polygon id="Fill-84" fill="#FFFFFF" points="88.8781243 2 89.3331916 2 89.4236948 2 90 1 89.3331916 1 88.8781243 1 86.618459 1 86 2"></polygon>
                <path d="M52.9813654,8.82133851 L52.9489552,8.82133851 L49.0081322,8.79878039 L51.7646636,2.66366096 L52.9489552,2.67095108 L55.0696636,2.68511867 C56.06172,2.69309654 56.9253877,3.08373707 56.8886655,3.63792392 C56.8461011,4.26831318 55.6704336,4.89457597 53.4294043,4.83556724 L52.9489552,5.32744418 L51.8385253,6.45933885 L52.9489552,6.46827956 L53.2750041,6.47103055 C55.4608109,6.48134676 55.8315106,7.119989 55.5146423,7.72245572 C55.234079,8.33331296 54.2115598,8.83261757 52.9813654,8.82133851 M52.9489552,9.93741499 C54.8361158,9.93095016 56.7267539,9.92434779 58.6351967,9.9202213 C59.7901384,9.36039492 59.9233955,8.63372102 60.1954738,8.04542189 C60.6767575,7.01531384 59.8902899,5.75467286 56.9500083,5.76732741 L56.9543204,5.58975104 C59.1978534,5.44106005 60.5046916,4.818236 61.2583318,4.08894866 C61.4500106,3.90270667 61.6053846,3.71165044 61.7307131,3.51756813 C62.2428768,2.73821277 61.9909679,2.11470098 61.2583318,1.68086992 C60.5077518,1.24084914 59.254606,1 57.794063,1 L52.9489552,1 L47.8426189,1 L44,10 C47.0077448,9.97180236 49.9732033,9.95172013 52.9489552,9.93741499" id="Fill-86" fill="#FFFFFF"></path>
                <path d="M77.6905943,10 C78.2383467,8.30314898 79.3146863,4.45798554 83.2390168,5.35707591 L83.3528024,5.00955027 L84,3.04718783 C83.7757793,3.01836788 83.5585279,3.00319142 83.3528024,3.00089195 C81.2633822,2.96348734 80.096443,4.11459894 79.7639317,4.1809768 L80.3069933,3.01300246 L76.5268716,3.01300246 L74,9.99279501 C75.2307342,9.9934082 76.4606642,9.99938681 77.6905943,10" id="Fill-88" fill="#FFFFFF"></path>
                <path d="M89.2181271,9.39392829 L89,9.96785567 C89.0720822,9.96881725 89.145042,9.96881725 89.2181271,9.97032831 C89.3760812,9.97032831 89.5316535,9.97403727 89.6877272,9.97458675 C90.6488655,9.98145519 91.5779115,9.99024681 92.5607371,10 L95.3481259,2.70928156 L96,1 L95.3481259,1 L92.3962643,1 L89.6877272,8.15142635 L89.2181271,9.39392829 Z" id="Fill-90" fill="#FFFFFF"></path>
            </g>
        </g>
    </g>
</svg>